# Blender 5.0.1
# www.blender.org
mtllib Alcantarilla1.mtl
o Cilindro.003
v 4.981872 0.179618 -0.859661
v 4.981872 0.279604 -0.816606
v 5.149583 0.179618 -0.843143
v 5.134650 0.279604 -0.800915
v 5.310850 0.179618 -0.794224
v 5.281557 0.279604 -0.754445
v 5.459474 0.179618 -0.714782
v 5.416946 0.279604 -0.678983
v 5.589744 0.179618 -0.607872
v 5.535617 0.279604 -0.577427
v 5.696654 0.179618 -0.477602
v 5.633008 0.279604 -0.453682
v 5.776095 0.179618 -0.328978
v 5.705375 0.279604 -0.312502
v 5.825015 0.179618 -0.167712
v 5.749938 0.279604 -0.159312
v 5.841533 0.179618 0.000000
v 5.764986 0.279604 0.000000
v 5.825015 0.179618 0.167712
v 5.749938 0.279604 0.159312
v 5.776095 0.179618 0.328978
v 5.705375 0.279604 0.312502
v 5.696654 0.179618 0.477602
v 5.633008 0.279604 0.453682
v 5.589744 0.179618 0.607872
v 5.535617 0.279604 0.577427
v 5.459474 0.179618 0.714782
v 5.416946 0.279604 0.678983
v 5.310850 0.179618 0.794224
v 5.281557 0.279604 0.754445
v 5.149583 0.179618 0.843143
v 5.134650 0.279604 0.800915
v 4.981872 0.179618 0.859661
v 4.981872 0.279604 0.816606
v 4.814160 0.179618 0.843143
v 4.829093 0.279604 0.800915
v 4.652894 0.179618 0.794224
v 4.682187 0.279604 0.754445
v 4.504269 0.179618 0.714782
v 4.546797 0.279604 0.678983
v 4.373999 0.179618 0.607872
v 4.428126 0.279604 0.577427
v 4.267089 0.179618 0.477602
v 4.330736 0.279604 0.453682
v 4.187648 0.179618 0.328978
v 4.258368 0.279604 0.312502
v 4.138728 0.179618 0.167712
v 4.213805 0.279604 0.159312
v 4.122210 0.179618 0.000000
v 4.198757 0.279604 0.000000
v 4.138728 0.179618 -0.167712
v 4.213805 0.279604 -0.159312
v 4.187648 0.179618 -0.328978
v 4.258368 0.279604 -0.312502
v 4.267089 0.179618 -0.477602
v 4.330736 0.279604 -0.453682
v 4.373999 0.179618 -0.607872
v 4.428126 0.279604 -0.577427
v 4.504269 0.179618 -0.714782
v 4.546797 0.279604 -0.678983
v 4.652894 0.179618 -0.794224
v 4.682187 0.279604 -0.754445
v 4.814160 0.179618 -0.843143
v 4.829093 0.279604 -0.800915
v 5.185578 0.279604 -1.024102
v 4.981872 0.279604 -1.044166
v 5.381456 0.279604 -0.964683
v 5.561979 0.279604 -0.868192
v 5.720208 0.279604 -0.738337
v 5.850064 0.279604 -0.580107
v 5.946555 0.279604 -0.399585
v 6.005974 0.279604 -0.203707
v 6.026037 0.279604 0.000000
v 6.005974 0.279604 0.203707
v 5.946555 0.279604 0.399585
v 5.850064 0.279604 0.580107
v 5.720208 0.279604 0.738337
v 5.561979 0.279604 0.868192
v 5.381456 0.279604 0.964683
v 5.185578 0.279604 1.024102
v 4.981872 0.279604 1.044166
v 4.778165 0.279604 1.024102
v 4.582287 0.279604 0.964683
v 4.401764 0.279604 0.868192
v 4.243535 0.279604 0.738337
v 4.113680 0.279604 0.580107
v 4.017189 0.279604 0.399585
v 3.957769 0.279604 0.203707
v 3.937706 0.279604 0.000000
v 3.957769 0.279604 -0.203707
v 4.017189 0.279604 -0.399585
v 4.113680 0.279604 -0.580107
v 4.243535 0.279604 -0.738337
v 4.401764 0.279604 -0.868192
v 4.582287 0.279604 -0.964683
v 4.778165 0.279604 -1.024102
v 5.176962 0.279604 -0.980785
v 4.981872 0.279604 -1.000000
v 5.364555 0.279604 -0.923880
v 5.537442 0.279604 -0.831470
v 5.688978 0.279604 -0.707107
v 5.813341 0.279604 -0.555570
v 5.905751 0.279604 -0.382683
v 5.962657 0.279604 -0.195090
v 5.981872 0.279604 0.000000
v 5.962657 0.279604 0.195090
v 5.905751 0.279604 0.382683
v 5.813341 0.279604 0.555570
v 5.688978 0.279604 0.707107
v 5.537442 0.279604 0.831470
v 5.364555 0.279604 0.923880
v 5.176962 0.279604 0.980785
v 4.981872 0.279604 1.000000
v 4.786781 0.279604 0.980785
v 4.599188 0.279604 0.923880
v 4.426301 0.279604 0.831470
v 4.274765 0.279604 0.707107
v 4.150402 0.279604 0.555570
v 4.057992 0.279604 0.382683
v 4.001086 0.279604 0.195090
v 3.981872 0.279604 0.000000
v 4.001086 0.279604 -0.195090
v 4.057992 0.279604 -0.382683
v 4.150402 0.279604 -0.555570
v 4.274765 0.279604 -0.707107
v 4.426301 0.279604 -0.831470
v 4.599188 0.279604 -0.923880
v 4.786781 0.279604 -0.980785
v 5.176962 0.279604 -0.980785
v 4.981872 0.279604 -1.000000
v 5.364555 0.279604 -0.923880
v 5.537442 0.279604 -0.831470
v 5.688978 0.279604 -0.707107
v 5.813341 0.279604 -0.555570
v 5.905751 0.279604 -0.382683
v 5.962657 0.279604 -0.195090
v 5.981872 0.279604 0.000000
v 5.962657 0.279604 0.195090
v 5.905751 0.279604 0.382683
v 5.813341 0.279604 0.555570
v 5.688978 0.279604 0.707107
v 5.537442 0.279604 0.831470
v 5.364555 0.279604 0.923880
v 5.176962 0.279604 0.980785
v 4.981872 0.279604 1.000000
v 4.786781 0.279604 0.980785
v 4.599188 0.279604 0.923880
v 4.426301 0.279604 0.831470
v 4.274765 0.279604 0.707107
v 4.150402 0.279604 0.555570
v 4.057992 0.279604 0.382683
v 4.001086 0.279604 0.195090
v 3.981872 0.279604 0.000000
v 4.001086 0.279604 -0.195090
v 4.057992 0.279604 -0.382683
v 4.150402 0.279604 -0.555570
v 4.274765 0.279604 -0.707107
v 4.426301 0.279604 -0.831470
v 4.599188 0.279604 -0.923880
v 4.786781 0.279604 -0.980785
v 5.176962 0.279604 -0.980785
v 4.981872 0.279604 -1.000000
v 5.364555 0.279604 -0.923880
v 5.537442 0.279604 -0.831470
v 5.688978 0.279604 -0.707107
v 5.813341 0.279604 -0.555570
v 5.905751 0.279604 -0.382683
v 5.962657 0.279604 -0.195090
v 5.981872 0.279604 0.000000
v 5.962657 0.279604 0.195090
v 5.905751 0.279604 0.382683
v 5.813341 0.279604 0.555570
v 5.688978 0.279604 0.707107
v 5.537442 0.279604 0.831470
v 5.364555 0.279604 0.923880
v 5.176962 0.279604 0.980785
v 4.981872 0.279604 1.000000
v 4.786781 0.279604 0.980785
v 4.599188 0.279604 0.923880
v 4.426301 0.279604 0.831470
v 4.274765 0.279604 0.707107
v 4.150402 0.279604 0.555570
v 4.057992 0.279604 0.382683
v 4.001086 0.279604 0.195090
v 3.981872 0.279604 0.000000
v 4.001086 0.279604 -0.195090
v 4.057992 0.279604 -0.382683
v 4.150402 0.279604 -0.555570
v 4.274765 0.279604 -0.707107
v 4.426301 0.279604 -0.831470
v 4.599188 0.279604 -0.923880
v 4.786781 0.279604 -0.980785
v 4.981872 0.279604 -0.908303
v 5.155806 0.279604 -0.890850
v 5.323056 0.279604 -0.839162
v 5.477194 0.279604 -0.755226
v 5.612298 0.279604 -0.642267
v 5.723174 0.279604 -0.504626
v 5.805563 0.279604 -0.347592
v 5.856297 0.279604 -0.177201
v 5.873429 0.279604 0.000000
v 5.856297 0.279604 0.177201
v 5.805563 0.279604 0.347592
v 5.723174 0.279604 0.504626
v 5.612298 0.279604 0.642267
v 5.477194 0.279604 0.755226
v 5.323056 0.279604 0.839162
v 5.155806 0.279604 0.890850
v 4.981872 0.279604 0.908303
v 4.807938 0.279604 0.890850
v 4.640687 0.279604 0.839162
v 4.486549 0.279604 0.755226
v 4.351446 0.279604 0.642267
v 4.240569 0.279604 0.504626
v 4.158180 0.279604 0.347592
v 4.107446 0.279604 0.177201
v 4.090314 0.279604 0.000000
v 4.107446 0.279604 -0.177201
v 4.158180 0.279604 -0.347592
v 4.240569 0.279604 -0.504626
v 4.351446 0.279604 -0.642267
v 4.486549 0.279604 -0.755226
v 4.640687 0.279604 -0.839162
v 4.807938 0.279604 -0.890850
v 4.981872 0.179618 -1.044166
v 5.185578 0.179618 -1.024102
v 5.381456 0.179618 -0.964683
v 5.561979 0.179618 -0.868192
v 5.720208 0.179618 -0.738337
v 5.850064 0.179618 -0.580107
v 5.946555 0.179618 -0.399585
v 6.005974 0.179618 -0.203707
v 6.026037 0.179618 0.000000
v 6.005974 0.179618 0.203707
v 5.946555 0.179618 0.399585
v 5.850064 0.179618 0.580107
v 5.720208 0.179618 0.738337
v 5.561979 0.179618 0.868192
v 5.381456 0.179618 0.964683
v 5.185578 0.179618 1.024102
v 4.981872 0.179618 1.044166
v 4.778165 0.179618 1.024102
v 4.582287 0.179618 0.964683
v 4.401764 0.179618 0.868192
v 4.243535 0.179618 0.738337
v 4.113680 0.179618 0.580107
v 4.017189 0.179618 0.399585
v 3.957769 0.179618 0.203707
v 3.937706 0.179618 0.000000
v 3.957769 0.179618 -0.203707
v 4.017189 0.179618 -0.399585
v 4.113680 0.179618 -0.580107
v 4.243535 0.179618 -0.738337
v 4.401764 0.179618 -0.868192
v 4.582287 0.179618 -0.964683
v 4.778165 0.179618 -1.024102
v 5.134650 0.426756 -0.800915
v 4.981872 0.426756 -0.816606
v 5.281557 0.426756 -0.754445
v 5.416946 0.426756 -0.678983
v 5.535617 0.426756 -0.577427
v 5.633008 0.426756 -0.453682
v 5.705375 0.426756 -0.312502
v 5.749938 0.426756 -0.159312
v 5.764986 0.426756 0.000000
v 5.749938 0.426756 0.159312
v 5.705375 0.426756 0.312502
v 5.633008 0.426756 0.453682
v 5.535617 0.426756 0.577427
v 5.416946 0.426756 0.678983
v 5.281557 0.426756 0.754445
v 5.134650 0.426756 0.800915
v 4.981872 0.426756 0.816606
v 4.829093 0.426756 0.800915
v 4.682187 0.426756 0.754445
v 4.546797 0.426756 0.678983
v 4.428126 0.426756 0.577427
v 4.330736 0.426756 0.453682
v 4.258368 0.426756 0.312502
v 4.213805 0.426756 0.159312
v 4.198757 0.426756 0.000000
v 4.213805 0.426756 -0.159312
v 4.258368 0.426756 -0.312502
v 4.330736 0.426756 -0.453682
v 4.428126 0.426756 -0.577427
v 4.546797 0.426756 -0.678983
v 4.682187 0.426756 -0.754445
v 4.829093 0.426756 -0.800915
v 4.981872 0.426756 -0.908303
v 5.155806 0.426756 -0.890850
v 5.323056 0.426756 -0.839162
v 5.477194 0.426756 -0.755226
v 5.612298 0.426756 -0.642267
v 5.723174 0.426756 -0.504626
v 5.805563 0.426756 -0.347592
v 5.856297 0.426756 -0.177201
v 5.873429 0.426756 0.000000
v 5.856297 0.426756 0.177201
v 5.805563 0.426756 0.347592
v 5.723174 0.426756 0.504626
v 5.612298 0.426756 0.642267
v 5.477194 0.426756 0.755226
v 5.323056 0.426756 0.839162
v 5.155806 0.426756 0.890850
v 4.981872 0.426756 0.908303
v 4.807938 0.426756 0.890850
v 4.640687 0.426756 0.839162
v 4.486549 0.426756 0.755226
v 4.351446 0.426756 0.642267
v 4.240569 0.426756 0.504626
v 4.158180 0.426756 0.347592
v 4.107446 0.426756 0.177201
v 4.090314 0.426756 0.000000
v 4.107446 0.426756 -0.177201
v 4.158180 0.426756 -0.347592
v 4.240569 0.426756 -0.504626
v 4.351446 0.426756 -0.642267
v 4.486549 0.426756 -0.755226
v 4.640687 0.426756 -0.839162
v 4.807938 0.426756 -0.890850
v 4.786418 0.279604 -0.960482
v 4.607794 0.279604 -0.906279
v 4.786418 0.426756 -0.960482
v 4.612339 0.426756 -0.906279
v 5.172606 0.279604 -0.962269
v 4.451370 0.279604 -0.819828
v 5.356011 0.279604 -0.906438
v 4.451370 0.426756 -0.819828
v 5.356011 0.279604 0.906438
v 5.351223 0.426756 0.905973
v 5.177365 0.279604 0.960611
v 5.177365 0.426756 0.960611
v 5.511970 0.279604 0.819087
v 5.511970 0.426756 0.819087
v 5.525038 0.279604 -0.815772
v 5.673191 0.279604 -0.693757
v 5.794777 0.279604 -0.545082
v 5.885124 0.279604 -0.375459
v 5.940760 0.279604 -0.191407
v 5.959545 0.279604 0.000000
v 5.940760 0.279604 0.191407
v 5.885124 0.279604 0.375459
v 5.794777 0.279604 0.545082
v 5.673191 0.279604 0.693757
v 4.981872 0.279604 0.981121
v 4.791137 0.279604 0.962269
v 4.607732 0.279604 0.906438
v 4.438705 0.279604 0.815772
v 4.290552 0.279604 0.693757
v 4.078619 0.279604 0.375459
v 4.022984 0.279604 0.191407
v 4.004198 0.279604 0.000000
v 4.022984 0.279604 -0.191407
v 4.078619 0.279604 -0.375459
v 4.168966 0.279604 -0.545082
v 4.290552 0.279604 -0.693757
v 4.981872 0.279604 -0.981121
v 5.898254 0.179618 0.489949
v 5.898254 0.279604 0.489949
v 5.859493 0.279604 0.469226
v 5.859493 0.279604 0.469226
v 5.859493 0.279604 0.469226
v 5.669150 0.279604 0.383172
v 5.764321 0.279604 0.426199
v 5.736329 0.179618 0.403375
v 5.669150 0.426756 0.383172
v 5.764321 0.426756 0.426199
v 5.839899 0.279604 0.460367
v 5.856297 0.397326 -0.177201
v 5.873429 0.397326 0.000000
v 5.856297 0.397326 0.177201
v 5.805563 0.397326 0.347592
v 5.723174 0.397326 0.504626
v 5.612298 0.397326 0.642267
v 5.477194 0.397326 0.755226
v 5.805563 0.397326 -0.347592
v 5.723174 0.397326 -0.504626
v 4.807938 0.397326 -0.890850
v 4.981872 0.397326 -0.908303
v 5.612298 0.397326 -0.642267
v 5.477194 0.397326 -0.755226
v 5.323056 0.397326 -0.839162
v 5.155806 0.397326 -0.890850
v 4.786418 0.397326 -0.960482
v 5.511970 0.397326 0.819087
v 5.764321 0.397326 0.426199
v 5.155806 0.395362 0.890850
v 4.981872 0.395362 0.908303
v 4.807938 0.395362 0.890850
v 4.640687 0.395362 0.839162
v 4.351446 0.395362 0.642267
v 4.486549 0.395362 0.755226
v 4.486549 0.395362 -0.755226
v 4.351446 0.395362 -0.642267
v 4.240569 0.395362 -0.504626
v 4.158180 0.395362 -0.347592
v 4.107446 0.395362 -0.177201
v 4.090314 0.395362 0.000000
v 4.107446 0.395362 0.177201
v 4.158180 0.395362 0.347592
v 4.240569 0.395362 0.504626
v 4.451370 0.395362 -0.819828
v 5.177365 0.395362 0.960611
v 4.065434 0.179618 -0.489846
v 4.065434 0.279604 -0.489846
v 4.104197 0.279604 -0.469127
v 4.104197 0.279604 -0.469127
v 4.104197 0.279604 -0.469127
v 4.294552 0.279604 -0.383092
v 4.199375 0.279604 -0.426109
v 4.227369 0.179618 -0.403290
v 4.294552 0.426756 -0.383092
v 4.199375 0.426756 -0.426109
v 4.123793 0.279604 -0.460270
v 4.199375 0.395362 -0.426109
v 5.283517 0.179618 -0.994393
v 5.283517 0.279604 -0.994393
v 5.270759 0.279604 -0.952332
v 5.270759 0.279604 -0.952332
v 5.270759 0.279604 -0.952332
v 5.208103 0.279604 -0.777680
v 5.239431 0.279604 -0.865006
v 5.230217 0.179618 -0.818683
v 5.208103 0.426756 -0.777680
v 5.239431 0.426756 -0.865006
v 5.264309 0.279604 -0.934353
v 5.239431 0.397326 -0.865006
v 4.680226 0.179618 0.994393
v 4.680226 0.279604 0.994393
v 4.692985 0.279604 0.952332
v 4.692985 0.279604 0.952332
v 4.692985 0.279604 0.952332
v 4.755640 0.279604 0.777680
v 4.724312 0.279604 0.865006
v 4.733527 0.179618 0.818683
v 4.755640 0.426756 0.777680
v 4.724312 0.426756 0.865006
v 4.699435 0.279604 0.934353
v 4.724312 0.395362 0.865006
v 4.178607 0.179618 0.659222
v 4.178607 0.279604 0.659222
v 4.212584 0.279604 0.631338
v 4.212584 0.279604 0.631338
v 4.212584 0.279604 0.631338
v 4.379431 0.279604 0.515555
v 4.296007 0.279604 0.573447
v 4.320544 0.179618 0.542737
v 4.379431 0.426756 0.515555
v 4.296007 0.426756 0.573447
v 4.296007 0.395362 0.573447
v 4.065434 0.179618 0.489846
v 4.065434 0.279604 0.489846
v 4.104197 0.279604 0.469127
v 4.104197 0.279604 0.469127
v 4.104197 0.279604 0.469127
v 4.294552 0.279604 0.383092
v 4.199375 0.279604 0.426109
v 4.227369 0.179618 0.403290
v 4.294552 0.426756 0.383092
v 4.199375 0.426756 0.426109
v 4.199375 0.395362 0.426109
v 4.474012 0.279604 0.771091
v 4.335490 0.279604 0.655759
v 4.137333 0.279604 0.354894
v 4.085314 0.279604 0.180924
v 4.067750 0.279604 0.000000
v 4.085314 0.279604 -0.180924
v 5.156506 0.179618 -0.877943
v 4.981872 0.179618 -0.895143
v 5.324428 0.179618 -0.827004
v 5.479187 0.179618 -0.744284
v 5.614833 0.179618 -0.632962
v 5.726156 0.179618 -0.497315
v 5.808876 0.179618 -0.342556
v 5.859815 0.179618 -0.174634
v 5.877015 0.179618 0.000000
v 5.859815 0.179618 0.174634
v 5.808876 0.179618 0.342556
v 5.726156 0.179618 0.497315
v 5.614833 0.179618 0.632962
v 5.479187 0.179618 0.744284
v 5.324428 0.179618 0.827004
v 5.156506 0.179618 0.877943
v 4.981872 0.179618 0.895143
v 4.807238 0.179618 0.877943
v 4.639315 0.179618 0.827004
v 4.484557 0.179618 0.744284
v 4.348910 0.179618 0.632962
v 4.154867 0.179618 0.342556
v 4.103929 0.179618 0.174634
v 4.086729 0.179618 0.000000
v 4.103929 0.179618 -0.174634
v 4.154867 0.179618 -0.342556
v 4.237587 0.179618 -0.497315
v 4.348910 0.179618 -0.632962
v 4.484557 0.179618 -0.744284
v 4.639315 0.179618 -0.827004
v 4.807238 0.179618 -0.877943
v 5.767468 0.179618 0.420024
v 4.196228 0.179618 -0.419936
v 5.240467 0.179618 -0.852474
v 4.723277 0.179618 0.852474
v 4.981872 0.179618 -1.044166
v 5.185578 0.179618 -1.024102
v 5.898254 0.179618 0.489949
v 4.065434 0.179618 -0.489846
v 5.283517 0.179618 -0.994393
v 4.680226 0.179618 0.994393
v 4.178607 0.179618 0.659222
v 4.065434 0.179618 0.489846
v 5.381456 0.179618 -0.964683
v 5.561979 0.179618 -0.868192
v 5.720208 0.179618 -0.738337
v 5.850064 0.179618 -0.580107
v 5.946555 0.179618 -0.399585
v 6.005974 0.179618 -0.203707
v 6.026037 0.179618 0.000000
v 6.005974 0.179618 0.203707
v 5.946555 0.179618 0.399585
v 5.850064 0.179618 0.580107
v 5.720208 0.179618 0.738337
v 5.561979 0.179618 0.868192
v 5.381456 0.179618 0.964683
v 5.185578 0.179618 1.024102
v 4.981872 0.179618 1.044166
v 4.778165 0.179618 1.024102
v 4.582287 0.179618 0.964683
v 4.401764 0.179618 0.868192
v 4.243535 0.179618 0.738337
v 4.113680 0.179618 0.580107
v 4.017189 0.179618 0.399585
v 3.957769 0.179618 0.203707
v 3.937706 0.179618 0.000000
v 3.957769 0.179618 -0.203707
v 4.017189 0.179618 -0.399585
v 4.113680 0.179618 -0.580107
v 4.243535 0.179618 -0.738337
v 4.401764 0.179618 -0.868192
v 4.582287 0.179618 -0.964683
v 4.778165 0.179618 -1.024102
v 5.176458 0.179618 -0.978252
v 5.363567 0.179618 -0.921494
v 5.536007 0.179618 -0.829322
v 5.687152 0.179618 -0.705281
v 5.811194 0.179618 -0.554135
v 5.903365 0.179618 -0.381695
v 5.960124 0.179618 -0.194586
v 5.979289 0.179618 0.000000
v 5.960124 0.179618 0.194586
v 5.903365 0.179618 0.381695
v 5.811194 0.179618 0.554135
v 5.687152 0.179618 0.705281
v 5.536007 0.179618 0.829322
v 5.363567 0.179618 0.921494
v 5.176458 0.179618 0.978252
v 4.981872 0.179618 0.997417
v 4.787285 0.179618 0.978252
v 4.600176 0.179618 0.921494
v 4.427736 0.179618 0.829322
v 4.276591 0.179618 0.705281
v 4.060378 0.179618 0.381695
v 4.003619 0.179618 0.194586
v 3.984454 0.179618 0.000000
v 4.003619 0.179618 -0.194586
v 4.060378 0.179618 -0.381695
v 4.152549 0.179618 -0.554135
v 4.276591 0.179618 -0.705281
v 4.427736 0.179618 -0.829322
v 4.600176 0.179618 -0.921494
v 4.787285 0.179618 -0.978252
v 4.981872 0.179618 -0.997417
v 5.857227 0.179618 0.468014
v 4.106464 0.179618 -0.467915
v 5.270012 0.179618 -0.949873
v 4.693731 0.179618 0.949873
v 4.315255 0.279604 0.423481
v 4.222945 0.279604 0.471034
v 4.315255 0.426756 0.423481
v 4.222945 0.426756 0.471034
v 4.250096 0.179618 0.445809
v 4.222945 0.395362 0.471034
v 4.238732 0.179618 0.424550
v 4.211160 0.395362 0.448572
v 4.304904 0.279604 0.403286
v 4.211160 0.279604 0.448572
v 4.304904 0.426756 0.403286
v 4.211160 0.426756 0.448572
v 4.079273 0.279604 0.515737
v 4.117451 0.279604 0.493923
v 4.117451 0.279604 0.493923
v 4.117451 0.279604 0.493923
v 4.079273 0.179618 0.515737
v 4.079273 0.179618 0.515737
v 4.097154 0.279604 0.549189
v 4.134575 0.279604 0.525959
v 4.134575 0.279604 0.525959
v 4.134575 0.279604 0.525959
v 4.097154 0.179618 0.549189
v 4.097154 0.179618 0.549189
v 4.140757 0.179618 0.613101
v 4.140757 0.279604 0.613101
v 4.176334 0.279604 0.587168
v 4.176334 0.279604 0.587168
v 4.176334 0.279604 0.587168
v 4.140757 0.179618 0.613101
v 4.981872 0.279604 -1.044166
v 5.185578 0.279604 -1.024102
v 5.381456 0.279604 -0.964683
v 5.561979 0.279604 -0.868192
v 5.720208 0.279604 -0.738337
v 5.850064 0.279604 -0.580107
v 5.946555 0.279604 -0.399585
v 6.005974 0.279604 -0.203707
v 6.026037 0.279604 0.000000
v 6.005974 0.279604 0.203707
v 5.946555 0.279604 0.399585
v 5.850064 0.279604 0.580107
v 5.720208 0.279604 0.738337
v 5.561979 0.279604 0.868192
v 5.381456 0.279604 0.964683
v 5.185578 0.279604 1.024102
v 4.981872 0.279604 1.044166
v 4.778165 0.279604 1.024102
v 4.582287 0.279604 0.964683
v 4.401764 0.279604 0.868192
v 4.243535 0.279604 0.738337
v 4.113680 0.279604 0.580107
v 4.017189 0.279604 0.399585
v 3.957769 0.279604 0.203707
v 3.937706 0.279604 0.000000
v 3.957769 0.279604 -0.203707
v 4.017189 0.279604 -0.399585
v 4.113680 0.279604 -0.580107
v 4.243535 0.279604 -0.738337
v 4.401764 0.279604 -0.868192
v 4.582287 0.279604 -0.964683
v 4.778165 0.279604 -1.024102
v 5.898254 0.279604 0.489949
v 4.065434 0.279604 -0.489846
v 5.283517 0.279604 -0.994393
v 4.680226 0.279604 0.994393
v 4.178607 0.279604 0.659222
v 4.065434 0.279604 0.489846
v 4.079273 0.279604 0.515737
v 4.097154 0.279604 0.549189
v 4.140757 0.279604 0.613101
v 4.159415 0.279604 0.635836
v 4.194203 0.279604 0.608942
v 4.194203 0.279604 0.608942
v 4.194203 0.279604 0.608942
v 4.159415 0.179618 0.635836
v 4.159415 0.179618 0.635836
v 4.159415 0.279604 0.635836
v 4.288212 0.179618 0.503340
v 4.262475 0.395362 0.531820
v 4.349977 0.279604 0.478130
v 4.262475 0.279604 0.531820
v 4.349977 0.426756 0.478130
v 4.262475 0.426756 0.531820
v 4.364571 0.279604 0.496673
v 4.279089 0.279604 0.552445
v 4.364571 0.426756 0.496673
v 4.279089 0.426756 0.552445
v 4.304232 0.179618 0.522860
v 4.279089 0.395362 0.552445
vn 0.0980 -0.0000 -0.9952
vn 0.2903 -0.0000 -0.9569
vn 0.4714 -0.0000 -0.8819
vn 0.6344 -0.0000 -0.7730
vn 0.7730 -0.0000 -0.6344
vn 0.8819 -0.0000 -0.4714
vn 0.9569 -0.0000 -0.2903
vn 0.9952 -0.0000 -0.0980
vn 0.9952 -0.0000 0.0980
vn 0.9569 -0.0000 0.2903
vn 0.8819 -0.0000 0.4714
vn 0.7730 -0.0000 0.6344
vn 0.6344 -0.0000 0.7730
vn 0.4714 -0.0000 0.8819
vn 0.2903 -0.0000 0.9569
vn 0.0980 -0.0000 0.9952
vn -0.0980 -0.0000 0.9952
vn -0.2903 -0.0000 0.9569
vn -0.4714 -0.0000 0.8819
vn -0.6344 -0.0000 0.7730
vn -0.7730 -0.0000 0.6344
vn -0.8819 -0.0000 0.4714
vn -0.9569 -0.0000 0.2903
vn -0.9952 -0.0000 0.0980
vn -0.9952 -0.0000 -0.0980
vn -0.9569 -0.0000 -0.2903
vn -0.8819 -0.0000 -0.4714
vn -0.7730 -0.0000 -0.6344
vn -0.6344 -0.0000 -0.7730
vn -0.4714 -0.0000 -0.8819
vn -0.2903 -0.0000 -0.9569
vn -0.0980 -0.0000 -0.9952
vn 0.7726 -0.5919 0.2297
vn -0.0000 1.0000 -0.0000
vn 0.3016 -0.0000 -0.9534
vn 0.9584 -0.0000 -0.2854
vn 0.1022 -0.0000 -0.9948
vn 0.9954 -0.0000 -0.0962
vn -0.1022 -0.0000 -0.9948
vn 0.9954 -0.0000 0.0962
vn -0.3016 -0.0000 -0.9534
vn 0.9584 -0.0000 0.2854
vn -0.4869 -0.0000 -0.8735
vn 0.8855 -0.0000 0.4646
vn -0.6502 -0.0000 -0.7598
vn 0.7788 -0.0000 0.6273
vn -0.7858 -0.0000 -0.6185
vn 0.6414 -0.0000 0.7672
vn -0.8899 -0.0000 -0.4562
vn 0.8782 -0.0000 -0.4782
vn -0.9602 -0.0000 -0.2793
vn -0.9554 -0.0000 0.2953
vn -0.9956 -0.0000 -0.0940
vn 0.0998 -0.0000 0.9950
vn -0.9956 -0.0000 0.0940
vn -0.0998 -0.0000 0.9950
vn -0.9602 -0.0000 0.2793
vn -0.2953 -0.0000 0.9554
vn -0.8899 -0.0000 0.4562
vn 0.1022 -0.0000 0.9948
vn -0.4782 -0.0000 0.8782
vn -0.7858 -0.0000 0.6185
vn 0.3016 -0.0000 0.9534
vn -0.6414 -0.0000 0.7672
vn -0.6502 -0.0000 0.7598
vn 0.4869 -0.0000 0.8735
vn 0.7930 -0.6045 0.0765
vn 0.7930 -0.6045 -0.0765
vn 0.7726 -0.5919 -0.2297
vn 0.7332 -0.5611 -0.3841
vn 0.6620 -0.5275 -0.5324
vn 0.5591 -0.4914 -0.6677
vn 0.2694 -0.4122 -0.8704
vn 0.4276 -0.4499 -0.7840
vn 0.0918 -0.3964 -0.9135
vn -0.0918 -0.3964 -0.9135
vn -0.2689 -0.4158 -0.8688
vn -0.4276 -0.4499 -0.7840
vn -0.5591 -0.4914 -0.6677
vn -0.6595 -0.5326 -0.5304
vn -0.7271 -0.5712 -0.3809
vn -0.7726 -0.5919 -0.2297
vn -0.7930 -0.6045 -0.0765
vn 0.7271 -0.5712 0.3809
vn 0.6595 -0.5326 0.5304
vn 0.5591 -0.4914 0.6677
vn 0.4276 -0.4499 0.7840
vn 0.2689 -0.4158 0.8688
vn 0.0918 -0.3964 0.9135
vn -0.0918 -0.3964 0.9135
vn -0.7930 -0.6045 0.0765
vn -0.7726 -0.5919 0.2297
vn -0.7295 -0.5673 0.3821
vn -0.6595 -0.5326 0.5304
vn -0.5591 -0.4914 0.6677
vn -0.4276 -0.4499 0.7840
vn -0.2694 -0.4122 0.8704
vn 0.8855 -0.0000 -0.4646
vn -0.0998 -0.0000 -0.9950
vn 0.4869 -0.0000 -0.8735
vn 0.7788 -0.0000 -0.6273
vn -0.0000 -1.0000 -0.0000
vn 0.6502 -0.0000 -0.7598
vn 0.6414 -0.0000 -0.7672
vn 0.7858 -0.0000 -0.6185
vn 0.4782 -0.0000 -0.8782
vn -0.6414 -0.0000 -0.7672
vn 0.8899 -0.0000 -0.4562
vn 0.2953 -0.0000 -0.9554
vn -0.7788 -0.0000 -0.6273
vn 0.9602 -0.0000 -0.2793
vn 0.0998 -0.0000 -0.9950
vn -0.8855 -0.0000 -0.4646
vn 0.9956 -0.0000 -0.0940
vn -0.9584 -0.0000 -0.2854
vn 0.9956 -0.0000 0.0940
vn -0.9954 -0.0000 -0.0962
vn 0.9602 -0.0000 0.2793
vn -0.9954 -0.0000 0.0962
vn 0.8899 -0.0000 0.4562
vn -0.1022 -0.0000 0.9948
vn -0.9584 -0.0000 0.2854
vn 0.7858 -0.0000 0.6185
vn -0.3016 -0.0000 0.9534
vn -0.8855 -0.0000 0.4646
vn 0.6502 -0.0000 0.7598
vn -0.4869 -0.0000 0.8735
vn -0.7788 -0.0000 0.6273
vn -0.2938 0.0045 -0.9559
vn -0.9097 0.0140 0.4150
vn 0.9554 -0.0000 -0.2953
vn -0.4784 0.0074 -0.8781
vn -0.8782 -0.0000 0.4782
vn 0.4820 0.0092 0.8761
vn 0.9098 0.0141 -0.4147
vn 0.2949 0.0063 0.9555
vn -0.7319 -0.5634 -0.3834
vn -0.4120 -0.0000 0.9112
vn 0.7319 -0.5634 0.3834
vn 0.7223 0.5766 0.3819
vn 0.3306 -0.0000 -0.9438
vn -0.7182 0.5830 -0.3798
vn -0.3306 -0.0000 0.9438
vn 0.4119 -0.0000 -0.9112
vn -0.9413 -0.0000 -0.3377
vn -0.2684 -0.4193 0.8672
vn 0.9413 -0.0000 0.3377
vn 0.2684 -0.4193 -0.8672
vn 0.2484 0.5311 -0.8101
vn 0.8980 -0.0000 0.4399
vn -0.2472 0.5375 0.8062
vn -0.8980 -0.0000 -0.4399
vn 0.6588 -0.5342 -0.5298
vn 0.7271 -0.5712 -0.3809
vn 0.7315 -0.5640 -0.3832
vn 0.7301 -0.5662 -0.3825
vn 0.6555 -0.5406 -0.5272
vn 0.6573 -0.5372 -0.5286
vt 1.000000 0.500000
vt 1.000000 1.000000
vt 0.968750 1.000000
vt 0.968750 0.500000
vt 0.953125 0.500000
vt 0.953125 1.000000
vt 0.937500 1.000000
vt 0.937500 0.500000
vt 0.906250 1.000000
vt 0.906250 0.500000
vt 0.875000 1.000000
vt 0.875000 0.500000
vt 0.843750 1.000000
vt 0.843750 0.500000
vt 0.812500 1.000000
vt 0.812500 0.500000
vt 0.781250 1.000000
vt 0.781250 0.500000
vt 0.750000 1.000000
vt 0.750000 0.500000
vt 0.718750 1.000000
vt 0.718750 0.500000
vt 0.687500 1.000000
vt 0.687500 0.500000
vt 0.671857 0.500000
vt 0.671857 1.000000
vt 0.656250 1.000000
vt 0.656250 0.500000
vt 0.625000 1.000000
vt 0.625000 0.500000
vt 0.593750 1.000000
vt 0.593750 0.500000
vt 0.562500 1.000000
vt 0.562500 0.500000
vt 0.531250 1.000000
vt 0.531250 0.500000
vt 0.500000 1.000000
vt 0.500000 0.500000
vt 0.468750 1.000000
vt 0.468750 0.500000
vt 0.453125 0.500000
vt 0.453125 1.000000
vt 0.437500 1.000000
vt 0.437500 0.500000
vt 0.406250 1.000000
vt 0.406250 0.500000
vt 0.375000 1.000000
vt 0.375000 0.500000
vt 0.350266 0.500000
vt 0.350266 1.000000
vt 0.343750 1.000000
vt 0.343750 0.500000
vt 0.328125 0.500000
vt 0.328125 1.000000
vt 0.312500 1.000000
vt 0.312500 0.500000
vt 0.281250 1.000000
vt 0.281250 0.500000
vt 0.250000 1.000000
vt 0.250000 0.500000
vt 0.218750 1.000000
vt 0.218750 0.500000
vt 0.187500 1.000000
vt 0.187500 0.500000
vt 0.171875 0.500000
vt 0.171875 1.000000
vt 0.156250 1.000000
vt 0.156250 0.500000
vt 0.125000 1.000000
vt 0.125000 0.500000
vt 0.093750 1.000000
vt 0.093750 0.500000
vt 0.062500 1.000000
vt 0.062500 0.500000
vt 0.031250 1.000000
vt 0.031250 0.500000
vt 0.000000 1.000000
vt 0.000000 0.500000
vt 0.071399 0.323979
vt 0.060398 0.287714
vt 0.547646 0.290251
vt 0.559386 0.328955
vt 0.250000 0.490000
vt 0.296822 0.485388
vt 0.296822 0.485388
vt 0.319333 0.478560
vt 0.341844 0.471731
vt 0.319333 0.478560
vt 0.383337 0.449553
vt 0.419706 0.419706
vt 0.449553 0.383337
vt 0.449553 0.383337
vt 0.471731 0.341844
vt 0.471731 0.341844
vt 0.485388 0.296822
vt 0.485388 0.296822
vt 0.490000 0.250000
vt 0.485388 0.203178
vt 0.485388 0.203178
vt 0.471731 0.158156
vt 0.460629 0.137385
vt 0.449553 0.116663
vt 0.460629 0.137385
vt 0.419706 0.080294
vt 0.383337 0.050447
vt 0.341844 0.028269
vt 0.296822 0.014612
vt 0.296822 0.014612
vt 0.250000 0.010000
vt 0.250000 0.010000
vt 0.203178 0.014612
vt 0.203178 0.014612
vt 0.180667 0.021440
vt 0.158156 0.028269
vt 0.158156 0.028269
vt 0.116663 0.050447
vt 0.080294 0.080294
vt 0.056671 0.109080
vt 0.050447 0.116663
vt 0.039358 0.137410
vt 0.028269 0.158156
vt 0.028269 0.158156
vt 0.014612 0.203178
vt 0.010000 0.250000
vt 0.014612 0.296822
vt 0.014612 0.296822
vt 0.028269 0.341844
vt 0.039358 0.362590
vt 0.050447 0.383337
vt 0.050447 0.383337
vt 0.080294 0.419706
vt 0.116663 0.449553
vt 0.158156 0.471731
vt 0.203178 0.485388
vt 0.203178 0.485388
vt 0.460629 0.137386
vt 0.460629 0.137386
vt 0.180667 0.021440
vt 0.180667 0.021440
vt 0.056679 0.109069
vt 0.056671 0.109080
vt 0.319333 0.478560
vt 0.460629 0.137386
vt 0.250000 0.485194
vt 0.295884 0.480675
vt 0.317945 0.473983
vt 0.340005 0.467291
vt 0.380667 0.445557
vt 0.416308 0.416308
vt 0.445557 0.380667
vt 0.467291 0.340005
vt 0.480675 0.295884
vt 0.485194 0.250000
vt 0.480675 0.204116
vt 0.467291 0.159995
vt 0.456412 0.139641
vt 0.445557 0.119333
vt 0.416308 0.083692
vt 0.380667 0.054443
vt 0.340005 0.032709
vt 0.295884 0.019325
vt 0.250000 0.014806
vt 0.204116 0.019325
vt 0.182055 0.026017
vt 0.159995 0.032709
vt 0.119333 0.054443
vt 0.083692 0.083692
vt 0.032709 0.159995
vt 0.019325 0.204116
vt 0.014806 0.250000
vt 0.019325 0.295884
vt 0.032709 0.340005
vt 0.043576 0.360336
vt 0.054443 0.380667
vt 0.083692 0.416308
vt 0.119333 0.445557
vt 0.159995 0.467291
vt 0.204116 0.480675
vt 0.194153 0.065898
vt 0.176021 0.071399
vt 0.462495 0.292268
vt 0.450166 0.332912
vt 0.450166 0.332912
vt 0.250000 0.056683
vt 0.212286 0.060398
vt 0.466658 0.250000
vt 0.287714 0.060398
vt 0.462495 0.207732
vt 0.462495 0.207732
vt 0.323979 0.071399
vt 0.450166 0.167088
vt 0.357401 0.089263
vt 0.440144 0.148338
vt 0.440144 0.148338
vt 0.386696 0.113305
vt 0.403201 0.096799
vt 0.430145 0.129631
vt 0.410737 0.142599
vt 0.370369 0.069855
vt 0.419659 0.159291
vt 0.419659 0.159291
vt 0.439602 0.212286
vt 0.428601 0.176021
vt 0.292268 0.037505
vt 0.443317 0.250000
vt 0.250000 0.033342
vt 0.439602 0.287714
vt 0.207732 0.037505
vt 0.428601 0.323979
vt 0.187410 0.043669
vt 0.187410 0.043669
vt 0.410737 0.357401
vt 0.212286 0.439602
vt 0.250000 0.443317
vt 0.129631 0.069855
vt 0.167088 0.049834
vt 0.386695 0.386695
vt 0.176021 0.428601
vt 0.096799 0.096799
vt 0.096799 0.096799
vt 0.357401 0.410737
vt 0.142599 0.410737
vt 0.796822 0.485388
vt 0.750000 0.490000
vt 0.796822 0.485388
vt 0.819333 0.478560
vt 0.819333 0.478560
vt 0.883337 0.449553
vt 0.841844 0.471731
vt 0.883337 0.449553
vt 0.919706 0.419706
vt 0.949553 0.383337
vt 0.949553 0.383337
vt 0.971731 0.341844
vt 0.985388 0.296822
vt 0.990000 0.250000
vt 0.985388 0.203178
vt 0.971731 0.158156
vt 0.960629 0.137386
vt 0.919706 0.080294
vt 0.949553 0.116663
vt 0.949553 0.116663
vt 0.883337 0.050447
vt 0.883337 0.050447
vt 0.841844 0.028269
vt 0.841844 0.028269
vt 0.796822 0.014612
vt 0.750000 0.010000
vt 0.703178 0.014612
vt 0.703178 0.014612
vt 0.680667 0.021440
vt 0.680667 0.021440
vt 0.616663 0.050447
vt 0.658156 0.028269
vt 0.616663 0.050447
vt 0.580294 0.080294
vt 0.565371 0.098479
vt 0.546649 0.123770
vt 0.550447 0.116663
vt 0.546649 0.123769
vt 0.514612 0.203178
vt 0.528269 0.158156
vt 0.510000 0.250000
vt 0.514612 0.296822
vt 0.528269 0.341844
vt 0.539358 0.362590
vt 0.580294 0.419706
vt 0.550447 0.383337
vt 0.550447 0.383337
vt 0.616663 0.449553
vt 0.616663 0.449553
vt 0.658156 0.471731
vt 0.703178 0.485388
vt 0.703178 0.485388
vt 0.056683 0.250000
vt 0.543681 0.250000
vt 0.060398 0.212286
vt 0.547646 0.209749
vt 0.071399 0.176021
vt 0.559386 0.171045
vt 0.085442 0.149749
vt 0.089263 0.142599
vt 0.578452 0.135375
vt 0.574374 0.143006
vt 0.101284 0.127952
vt 0.113305 0.113305
vt 0.604111 0.104111
vt 0.591281 0.119743
vt 0.142599 0.089263
vt 0.635376 0.078452
vt 0.709749 0.047646
vt 0.690397 0.053516
vt 0.671045 0.059386
vt 0.750000 0.043681
vt 0.790251 0.047646
vt 0.828955 0.059386
vt 0.864625 0.078452
vt 0.895889 0.104111
vt 0.921548 0.135375
vt 0.940614 0.171045
vt 0.931070 0.153190
vt 0.952354 0.209749
vt 0.956319 0.250000
vt 0.080331 0.340690
vt 0.568919 0.346790
vt 0.113305 0.386696
vt 0.089263 0.357401
vt 0.578452 0.364625
vt 0.604111 0.395889
vt 0.635375 0.421548
vt 0.671045 0.440614
vt 0.709749 0.452354
vt 0.750000 0.456319
vt 0.287714 0.439602
vt 0.790251 0.452355
vt 0.952354 0.290251
vt 0.940614 0.328955
vt 0.921548 0.364625
vt 0.895889 0.395889
vt 0.864625 0.421548
vt 0.323979 0.428601
vt 0.828955 0.440614
vt 0.305847 0.434102
vt 0.809603 0.446484
vt 0.250000 0.466658
vt 0.207732 0.462495
vt 0.167088 0.450166
vt 0.129631 0.430145
vt 0.096799 0.403201
vt 0.069855 0.370369
vt 0.080331 0.340690
vt 0.059845 0.351640
vt 0.049834 0.332912
vt 0.037505 0.292268
vt 0.033342 0.250000
vt 0.037505 0.207732
vt 0.049834 0.167088
vt 0.080331 0.159310
vt 0.059845 0.148360
vt 0.094013 0.136811
vt 0.069855 0.129631
vt 0.075179 0.123145
vt 0.332912 0.049834
vt 0.430145 0.370369
vt 0.403201 0.403201
vt 0.370369 0.430145
vt 0.332912 0.450166
vt 0.312590 0.456331
vt 0.292268 0.462495
vt 0.403201 0.403201
vt 0.370369 0.430145
vt 0.094013 0.136811
vt 0.129631 0.430145
vt 0.080331 0.159310
vt 0.059845 0.351640
vt 0.033342 0.250000
vt 0.065572 0.137644
vt 0.083327 0.113215
vt 0.207732 0.462495
vt 0.000000 0.000000
vt 0.059845 0.351640
vt 0.032741 0.293216
vt 0.028485 0.250000
vt 0.032741 0.206785
vt 0.045347 0.165230
vt 0.126933 0.065817
vt 0.093365 0.093365
vt 0.440144 0.148338
vt 0.083327 0.113215
vt 0.065572 0.137644
vt 0.079216 0.118225
vt 0.079216 0.118225
vt 0.079216 0.118225
vt 0.101284 0.127952
vt 0.097616 0.132422
vt 0.587366 0.124513
vt 0.560960 0.103854
vt 0.560959 0.103854
vt 0.065371 0.098479
vt 0.065371 0.098479
vt 0.065371 0.098479
vt 0.359375 1.000000
vt 0.359375 0.500000
vt 0.059845 0.148360
vt 0.059845 0.148360
vt 0.082886 0.154529
vt 0.082886 0.154529
vt 0.062708 0.143002
vt 0.568919 0.153210
vt 0.539358 0.137410
vt 0.042539 0.131458
vt 0.042554 0.131428
vt 0.042539 0.131458
vt 0.332607 0.500000
vt 0.332607 1.000000
vt 0.688526 0.047348
vt 0.668567 0.053402
vt 0.811474 0.452653
vt 0.831433 0.446598
vt 0.563234 0.349828
vt 0.573067 0.368223
vt 0.936754 0.150151
vt 0.926934 0.131777
vt 0.708486 0.458707
vt 0.750000 0.462796
vt 0.668566 0.446598
vt 0.631777 0.426933
vt 0.599531 0.400469
vt 0.553402 0.331433
vt 0.541293 0.291514
vt 0.537204 0.250000
vt 0.541293 0.208486
vt 0.553402 0.168567
vt 0.631777 0.073067
vt 0.599531 0.099531
vt 0.708486 0.041293
vt 0.750000 0.037204
vt 0.791515 0.041293
vt 0.831433 0.053402
vt 0.868223 0.073067
vt 0.900469 0.099531
vt 0.946598 0.168567
vt 0.958707 0.208486
vt 0.962796 0.250000
vt 0.958707 0.291514
vt 0.946598 0.331434
vt 0.926933 0.368223
vt 0.900469 0.400469
vt 0.868223 0.426933
vt 0.791515 0.458707
vt 0.661422 0.036153
vt 0.683133 0.029567
vt 0.838578 0.463847
vt 0.816868 0.470433
vt 0.557543 0.378596
vt 0.546848 0.358587
vt 0.942457 0.121404
vt 0.953140 0.141390
vt 0.750000 0.481466
vt 0.704843 0.477019
vt 0.661422 0.463847
vt 0.621404 0.442457
vt 0.586329 0.413671
vt 0.536153 0.338578
vt 0.522982 0.295157
vt 0.518534 0.250000
vt 0.522982 0.204843
vt 0.536153 0.161422
vt 0.586329 0.086329
vt 0.621404 0.057543
vt 0.704843 0.022981
vt 0.750000 0.018534
vt 0.795157 0.022981
vt 0.838578 0.036153
vt 0.878596 0.057543
vt 0.913671 0.086329
vt 0.963847 0.161422
vt 0.977019 0.204843
vt 0.981466 0.250000
vt 0.977019 0.295157
vt 0.963847 0.338578
vt 0.942457 0.378596
vt 0.913671 0.413671
vt 0.878596 0.442457
vt 0.795157 0.477019
vt 0.085442 0.149749
vt 0.062708 0.143002
vt 0.062708 0.143002
vt 0.571647 0.148108
vt 0.338398 0.500000
vt 0.338398 1.000000
vt 0.046649 0.123770
vt 0.046649 0.123770
vt 0.046648 0.123771
vt 0.046649 0.123770
vt 0.046649 0.123770
vt 0.542539 0.131458
vt 0.542532 0.131472
vt 0.556671 0.109080
vt 0.556667 0.109084
vt 0.060960 0.103854
vt 0.060960 0.103854
vt 0.060960 0.103854
vt 0.060960 0.103854
vt 0.060959 0.103855
vt 0.354756 0.500000
vt 0.354756 1.000000
vt 0.583522 0.129198
vt 0.075179 0.123145
vt 0.097616 0.132422
s 0
f 225/1/1 66/2/1 65/3/1 226/4/1
f 416/5/2 417/6/2 67/7/2 227/8/2
f 227/8/3 67/7/3 68/9/3 228/10/3
f 228/10/4 68/9/4 69/11/4 229/12/4
f 229/12/5 69/11/5 70/13/5 230/14/5
f 230/14/6 70/13/6 71/15/6 231/16/6
f 231/16/7 71/15/7 72/17/7 232/18/7
f 232/18/8 72/17/8 73/19/8 233/20/8
f 233/20/9 73/19/9 74/21/9 234/22/9
f 234/22/10 74/21/10 75/23/10 235/24/10
f 358/25/11 359/26/11 76/27/11 236/28/11
f 236/28/12 76/27/12 77/29/12 237/30/12
f 237/30/13 77/29/13 78/31/13 238/32/13
f 238/32/14 78/31/14 79/33/14 239/34/14
f 239/34/15 79/33/15 80/35/15 240/36/15
f 240/36/16 80/35/16 81/37/16 241/38/16
f 241/38/17 81/37/17 82/39/17 242/40/17
f 428/41/18 429/42/18 83/43/18 243/44/18
f 243/44/19 83/43/19 84/45/19 244/46/19
f 244/46/20 84/45/20 85/47/20 245/48/20
f 600/49/21 601/50/21 86/51/21 246/52/21
f 451/53/22 452/54/22 87/55/22 247/56/22
f 247/56/23 87/55/23 88/57/23 248/58/23
f 248/58/24 88/57/24 89/59/24 249/60/24
f 249/60/25 89/59/25 90/61/25 250/62/25
f 250/62/26 90/61/26 91/63/26 251/64/26
f 404/65/27 405/66/27 92/67/27 252/68/27
f 252/68/28 92/67/28 93/69/28 253/70/28
f 253/70/29 93/69/29 94/71/29 254/72/29
f 254/72/30 94/71/30 95/73/30 255/74/30
f 255/74/31 95/73/31 96/75/31 256/76/31
f 256/76/32 96/75/32 66/77/32 225/78/32
f 54/79/33 52/80/33 51/81/33 53/82/33
f 606/83/34 607/84/34 65/85/34 66/83/34
f 640/86/34 608/87/34 67/87/34 417/88/34
f 608/87/34 609/89/34 68/89/34 67/87/34
f 609/89/34 610/90/34 69/90/34 68/89/34
f 610/90/34 611/91/34 70/92/34 69/90/34
f 611/91/34 612/93/34 71/94/34 70/92/34
f 612/93/34 613/95/34 72/96/34 71/94/34
f 613/95/34 614/97/34 73/97/34 72/96/34
f 614/97/34 615/98/34 74/99/34 73/97/34
f 615/98/34 616/100/34 75/100/34 74/99/34
f 638/101/34 617/102/34 76/102/34 359/103/34
f 617/102/34 618/104/34 77/104/34 76/102/34
f 618/104/34 619/105/34 78/105/34 77/104/34
f 619/105/34 620/106/34 79/106/34 78/105/34
f 620/106/34 621/107/34 80/108/34 79/106/34
f 621/107/34 622/109/34 81/110/34 80/108/34
f 622/109/34 623/111/34 82/112/34 81/110/34
f 641/113/34 624/114/34 83/115/34 429/113/34
f 624/114/34 625/116/34 84/116/34 83/115/34
f 625/116/34 626/117/34 85/117/34 84/116/34
f 646/118/34 627/119/34 86/119/34 601/118/34
f 643/120/34 628/121/34 87/122/34 452/120/34
f 628/121/34 629/123/34 88/123/34 87/122/34
f 629/123/34 630/124/34 89/124/34 88/123/34
f 630/124/34 631/125/34 90/126/34 89/124/34
f 631/125/34 632/127/34 91/127/34 90/126/34
f 639/128/34 633/129/34 92/130/34 405/128/34
f 633/129/34 634/131/34 93/131/34 92/130/34
f 634/131/34 635/132/34 94/132/34 93/131/34
f 635/132/34 636/133/34 95/133/34 94/132/34
f 636/133/34 637/134/34 96/135/34 95/133/34
f 637/134/34 606/83/34 66/83/34 96/135/34
f 130/83/34 129/85/34 97/85/34 98/83/34
f 419/88/34 131/87/34 99/87/34 418/86/34
f 131/87/34 132/89/34 100/89/34 99/87/34
f 132/89/34 133/90/34 101/90/34 100/89/34
f 133/90/34 134/92/34 102/92/34 101/90/34
f 134/92/34 135/94/34 103/94/34 102/92/34
f 135/94/34 136/96/34 104/96/34 103/94/34
f 136/96/34 137/97/34 105/97/34 104/96/34
f 137/97/34 138/99/34 106/99/34 105/97/34
f 138/99/34 139/100/34 107/100/34 106/99/34
f 361/136/34 140/102/34 108/102/34 360/137/34
f 140/102/34 141/104/34 109/104/34 108/102/34
f 141/104/34 142/105/34 110/105/34 109/104/34
f 142/105/34 143/106/34 111/106/34 110/105/34
f 143/106/34 144/108/34 112/108/34 111/106/34
f 144/108/34 145/110/34 113/110/34 112/108/34
f 145/110/34 146/112/34 114/112/34 113/110/34
f 431/138/34 147/115/34 115/115/34 430/139/34
f 147/115/34 148/116/34 116/116/34 115/115/34
f 148/116/34 149/117/34 117/117/34 116/116/34
f 603/140/34 150/119/34 118/119/34 602/141/34
f 454/120/34 151/122/34 119/122/34 453/120/34
f 151/122/34 152/123/34 120/123/34 119/122/34
f 152/123/34 153/124/34 121/124/34 120/123/34
f 153/124/34 154/126/34 122/126/34 121/124/34
f 154/126/34 155/127/34 123/127/34 122/126/34
f 407/128/34 156/130/34 124/130/34 406/128/34
f 156/130/34 157/131/34 125/131/34 124/130/34
f 157/131/34 158/132/34 126/132/34 125/131/34
f 158/132/34 159/133/34 127/133/34 126/132/34
f 159/133/34 160/135/34 128/135/34 127/133/34
f 160/135/34 130/83/34 98/83/34 128/135/34
f 162/83/34 161/85/34 129/85/34 130/83/34
f 420/142/34 163/87/34 131/87/34 419/88/34
f 163/87/34 164/89/34 132/89/34 131/87/34
f 164/89/34 165/90/34 133/90/34 132/89/34
f 165/90/34 166/92/34 134/92/34 133/90/34
f 166/92/34 167/94/34 135/94/34 134/92/34
f 167/94/34 168/96/34 136/96/34 135/94/34
f 168/96/34 169/97/34 137/97/34 136/96/34
f 169/97/34 170/99/34 138/99/34 137/97/34
f 170/99/34 171/100/34 139/100/34 138/99/34
f 362/143/34 172/102/34 140/102/34 361/136/34
f 172/102/34 173/104/34 141/104/34 140/102/34
f 173/104/34 174/105/34 142/105/34 141/104/34
f 174/105/34 175/106/34 143/106/34 142/105/34
f 175/106/34 176/108/34 144/108/34 143/106/34
f 176/108/34 177/110/34 145/110/34 144/108/34
f 177/110/34 178/112/34 146/112/34 145/110/34
f 432/113/34 179/115/34 147/115/34 431/138/34
f 179/115/34 180/116/34 148/116/34 147/115/34
f 180/116/34 181/117/34 149/117/34 148/116/34
f 604/141/34 182/119/34 150/119/34 603/140/34
f 455/120/34 183/122/34 151/122/34 454/120/34
f 183/122/34 184/123/34 152/123/34 151/122/34
f 184/123/34 185/124/34 153/124/34 152/123/34
f 185/124/34 186/126/34 154/126/34 153/124/34
f 186/126/34 187/127/34 155/127/34 154/126/34
f 408/128/34 188/130/34 156/130/34 407/128/34
f 188/130/34 189/131/34 157/131/34 156/130/34
f 189/131/34 190/132/34 158/132/34 157/131/34
f 190/132/34 191/133/34 159/133/34 158/132/34
f 191/133/34 192/135/34 160/135/34 159/133/34
f 192/135/34 162/83/34 130/83/34 160/135/34
f 357/144/34 325/145/34 161/85/34 162/83/34
f 426/146/34 327/147/34 163/87/34 420/142/34
f 327/147/34 335/148/34 164/89/34 163/87/34
f 335/148/34 336/149/34 165/90/34 164/89/34
f 336/149/34 337/150/34 166/92/34 165/90/34
f 337/150/34 338/151/34 167/94/34 166/92/34
f 338/151/34 339/152/34 168/96/34 167/94/34
f 339/152/34 340/153/34 169/97/34 168/96/34
f 340/153/34 341/154/34 170/99/34 169/97/34
f 341/154/34 342/155/34 171/100/34 170/99/34
f 368/156/34 343/157/34 172/102/34 362/143/34
f 343/157/34 344/158/34 173/104/34 172/102/34
f 344/158/34 333/159/34 174/105/34 173/104/34
f 333/159/34 329/160/34 175/106/34 174/105/34
f 329/160/34 331/161/34 176/108/34 175/106/34
f 331/161/34 345/162/34 177/110/34 176/108/34
f 345/162/34 346/163/34 178/112/34 177/110/34
f 438/164/34 347/165/34 179/115/34 432/113/34
f 347/165/34 348/166/34 180/116/34 179/115/34
f 348/166/34 349/167/34 181/117/34 180/116/34
f 350/168/34 351/169/34 184/123/34 183/122/34
f 351/169/34 352/170/34 185/124/34 184/123/34
f 352/170/34 353/171/34 186/126/34 185/124/34
f 353/171/34 354/172/34 187/127/34 186/126/34
f 414/173/34 355/174/34 188/130/34 408/128/34
f 355/174/34 356/175/34 189/131/34 188/130/34
f 356/175/34 326/176/34 190/132/34 189/131/34
f 326/176/34 322/177/34 191/133/34 190/132/34
f 322/177/34 321/178/34 192/135/34 191/133/34
f 321/178/34 357/144/34 162/83/34 192/135/34
f 433/179/35 38/180/35 275/180/35 436/179/35
f 369/181/36 376/182/36 295/183/36 296/181/36
f 34/184/37 36/185/37 274/185/37 273/184/37
f 370/186/38 369/181/38 296/181/38 297/186/38
f 32/187/39 34/184/39 273/184/39 272/187/39
f 371/188/40 370/186/40 297/186/40 298/189/40
f 30/190/41 32/187/41 272/187/41 271/190/41
f 372/191/42 371/188/42 298/189/42 299/191/42
f 28/192/43 30/190/43 271/190/43 270/192/43
f 386/193/44 372/191/44 299/191/44 367/194/44
f 26/195/45 28/192/45 270/192/45 269/195/45
f 374/196/46 373/197/46 300/197/46 301/196/46
f 24/198/47 26/195/47 269/195/47 268/198/47
f 375/199/48 374/196/48 301/196/48 302/199/48
f 363/200/49 24/198/49 268/198/49 366/201/49
f 375/199/50 302/199/50 334/199/50 385/199/50
f 20/202/51 22/203/51 267/203/51 266/202/51
f 387/204/52 208/204/52 331/204/52 403/204/52
f 18/205/53 20/202/53 266/202/53 265/205/53
f 388/206/54 387/204/54 304/204/54 305/206/54
f 16/207/55 18/205/55 265/205/55 264/207/55
f 389/208/56 388/206/56 305/206/56 306/208/56
f 14/209/57 16/207/57 264/207/57 263/209/57
f 439/210/58 389/208/58 306/208/58 437/211/58
f 12/212/59 14/209/59 263/209/59 262/212/59
f 64/213/60 2/214/60 258/214/60 288/213/60
f 392/215/61 390/216/61 307/216/61 308/215/61
f 10/217/62 12/212/62 262/212/62 261/217/62
f 62/218/63 64/213/63 288/213/63 287/218/63
f 391/219/64 392/215/64 308/215/64 309/220/64
f 8/221/65 10/217/65 261/217/65 260/221/65
f 60/222/66 62/218/66 287/218/66 286/222/66
f 504/223/34 503/224/34 225/224/34 226/225/34
f 507/226/34 504/223/34 226/225/34 416/227/34
f 512/228/34 511/229/34 227/229/34 228/230/34
f 513/231/34 512/228/34 228/230/34 229/231/34
f 514/232/34 513/231/34 229/231/34 230/233/34
f 515/234/34 514/232/34 230/233/34 231/234/34
f 516/235/34 515/234/34 231/234/34 232/235/34
f 517/236/34 516/235/34 232/235/34 233/236/34
f 518/237/34 517/236/34 233/236/34 234/237/34
f 519/238/34 518/237/34 234/237/34 235/238/34
f 505/239/34 519/238/34 235/238/34 358/239/34
f 521/240/34 520/241/34 236/242/34 237/240/34
f 522/243/34 521/240/34 237/240/34 238/244/34
f 523/245/34 522/243/34 238/244/34 239/246/34
f 524/247/34 523/245/34 239/246/34 240/247/34
f 525/248/34 524/247/34 240/247/34 241/248/34
f 526/249/34 525/248/34 241/248/34 242/250/34
f 508/251/34 526/249/34 242/250/34 428/252/34
f 528/253/34 527/254/34 243/254/34 244/255/34
f 529/256/34 528/253/34 244/255/34 245/256/34
f 509/257/34 529/256/34 245/256/34 440/257/34
f 599/258/34 530/259/34 246/259/34 598/260/34
f 532/261/34 531/262/34 247/262/34 248/261/34
f 533/263/34 532/261/34 248/261/34 249/263/34
f 534/264/34 533/263/34 249/263/34 250/264/34
f 535/265/34 534/264/34 250/264/34 251/265/34
f 506/266/34 535/265/34 251/265/34 404/266/34
f 537/267/34 536/268/34 252/269/34 253/267/34
f 538/270/34 537/267/34 253/267/34 254/271/34
f 539/272/34 538/270/34 254/271/34 255/272/34
f 540/273/34 539/272/34 255/272/34 256/274/34
f 503/224/34 540/273/34 256/274/34 225/224/34
f 52/80/67 50/275/67 49/276/67 51/81/67
f 50/275/68 48/277/68 47/278/68 49/276/68
f 48/277/69 46/279/69 45/280/69 47/278/69
f 576/281/70 44/282/70 43/283/70 580/284/70
f 445/285/71 42/286/71 41/287/71 447/288/71
f 42/286/72 40/289/72 39/290/72 41/287/72
f 433/179/73 36/185/73 35/291/73 435/292/73
f 40/289/74 38/180/74 37/293/74 39/290/74
f 36/185/75 34/184/75 33/294/75 35/291/75
f 34/184/76 32/187/76 31/295/76 33/294/76
f 32/187/77 30/190/77 29/296/77 31/295/77
f 30/190/78 28/192/78 27/297/78 29/296/78
f 28/192/79 26/195/79 25/298/79 27/297/79
f 26/195/80 24/198/80 23/299/80 25/298/80
f 363/200/81 22/203/81 21/300/81 365/301/81
f 22/203/82 20/202/82 19/302/82 21/300/82
f 20/202/83 18/205/83 17/303/83 19/302/83
f 409/304/84 54/79/84 53/82/84 411/305/84
f 58/306/85 56/307/85 55/308/85 57/309/85
f 60/222/86 58/306/86 57/309/86 59/310/86
f 62/218/87 60/222/87 59/310/87 61/311/87
f 64/213/88 62/218/88 61/311/88 63/312/88
f 2/214/89 64/213/89 63/312/89 1/313/89
f 4/314/90 2/214/90 1/313/90 3/315/90
f 18/205/91 16/207/91 15/316/91 17/303/91
f 16/207/92 14/209/92 13/317/92 15/316/92
f 14/209/93 12/212/93 11/318/93 13/317/93
f 12/212/94 10/217/94 9/319/94 11/318/94
f 10/217/95 8/221/95 7/320/95 9/319/95
f 8/221/96 6/321/96 5/322/96 7/320/96
f 421/323/97 4/314/97 3/315/97 423/324/97
f 288/213/34 258/214/34 289/325/34 320/326/34
f 287/218/34 288/213/34 320/326/34 319/327/34
f 286/222/34 287/218/34 319/327/34 318/328/34
f 285/306/34 286/222/34 318/328/34 317/329/34
f 284/307/34 285/306/34 317/329/34 316/330/34
f 412/331/34 284/307/34 316/330/34 413/332/34
f 282/80/34 283/79/34 315/333/34 314/334/34
f 281/275/34 282/80/34 314/334/34 313/335/34
f 280/277/34 281/275/34 313/335/34 312/336/34
f 279/279/34 280/277/34 312/336/34 311/337/34
f 459/338/34 279/279/34 311/337/34 460/339/34
f 658/340/34 278/282/34 310/341/34 659/342/34
f 276/289/34 277/286/34 309/220/34 308/215/34
f 275/180/34 276/289/34 308/215/34 307/216/34
f 436/179/34 275/180/34 307/216/34 437/211/34
f 273/184/34 274/185/34 306/208/34 305/206/34
f 272/187/34 273/184/34 305/206/34 304/204/34
f 271/190/34 272/187/34 304/204/34 303/343/34
f 270/192/34 271/190/34 303/343/34 302/199/34
f 269/195/34 270/192/34 302/199/34 301/196/34
f 268/198/34 269/195/34 301/196/34 300/197/34
f 366/201/34 268/198/34 300/197/34 367/194/34
f 266/202/34 267/203/34 299/191/34 298/189/34
f 265/205/34 266/202/34 298/189/34 297/186/34
f 264/207/34 265/205/34 297/186/34 296/181/34
f 263/209/34 264/207/34 296/181/34 295/183/34
f 262/212/34 263/209/34 295/183/34 294/344/34
f 261/217/34 262/212/34 294/344/34 293/345/34
f 260/221/34 261/217/34 293/345/34 292/346/34
f 259/321/34 260/221/34 292/346/34 291/347/34
f 424/323/34 259/321/34 291/347/34 425/348/34
f 258/214/34 257/314/34 290/349/34 289/325/34
f 376/182/98 377/344/98 294/344/98 295/183/98
f 379/325/99 378/326/99 320/326/99 289/325/99
f 38/180/100 40/289/100 276/289/100 275/180/100
f 377/344/101 380/350/101 293/345/101 294/344/101
f 224/326/102 223/327/102 322/327/102 321/326/102
f 40/289/103 42/286/103 277/286/103 276/289/103
f 380/350/104 381/351/104 292/346/104 293/345/104
f 224/326/34 193/325/34 357/144/34 321/178/34
f 656/352/105 44/282/105 278/282/105 658/340/105
f 381/351/106 382/347/106 291/347/106 292/346/106
f 393/353/107 394/329/107 317/329/107 318/328/107
f 456/354/108 46/279/108 279/279/108 459/338/108
f 427/348/109 383/349/109 290/349/109 425/348/109
f 394/329/110 395/330/110 316/330/110 317/329/110
f 46/279/111 48/277/111 280/277/111 279/279/111
f 383/349/112 379/325/112 289/325/112 290/349/112
f 415/355/113 396/333/113 315/333/113 413/332/113
f 48/277/114 50/275/114 281/275/114 280/277/114
f 396/333/115 397/334/115 314/334/115 315/333/115
f 50/275/116 52/80/116 282/80/116 281/275/116
f 397/334/117 398/356/117 313/335/117 314/334/117
f 52/80/118 54/79/118 283/79/118 282/80/118
f 398/356/119 399/336/119 312/336/119 313/335/119
f 409/304/120 56/307/120 284/307/120 412/331/120
f 2/214/121 4/314/121 257/314/121 258/214/121
f 399/336/122 400/337/122 311/337/122 312/336/122
f 56/307/123 58/306/123 285/306/123 284/307/123
f 421/323/124 6/321/124 259/321/124 424/323/124
f 581/357/125 401/341/125 310/341/125 579/357/125
f 58/306/126 60/222/126 286/222/126 285/306/126
f 6/321/127 8/221/127 260/221/127 259/321/127
f 450/358/128 391/219/128 309/220/128 449/358/128
f 321/326/129 322/327/129 324/327/129 323/326/129 384/359/129
f 223/327/130 319/327/130 324/327/130 322/327/130
f 378/326/131 224/326/131 321/326/131 384/359/131
f 319/327/34 320/326/34 323/326/34 324/327/34
f 322/327/132 326/328/132 402/328/132 328/328/132 324/327/132
f 393/353/133 318/328/133 328/328/133 402/328/133
f 223/327/102 222/328/102 326/328/102 322/327/102
f 318/328/34 319/327/34 324/327/34 328/328/34
f 329/360/134 333/360/134 385/360/134 334/360/134 330/360/134
f 208/204/102 207/343/102 329/343/102 331/204/102
f 207/343/135 303/343/135 330/343/135 329/343/135
f 303/343/34 304/204/34 332/204/34 330/343/34
f 331/360/136 329/360/136 330/360/136 332/360/136 403/360/136
f 207/343/102 206/199/102 333/199/102 329/343/102
f 302/199/34 303/343/34 330/343/34 334/199/34
f 221/329/34 222/328/34 326/176/34 356/175/34
f 220/330/34 221/329/34 356/175/34 355/174/34
f 410/361/34 220/330/34 355/174/34 414/173/34
f 218/334/34 219/333/34 354/172/34 353/171/34 467/362/34
f 466/363/34 467/362/34 353/171/34 352/170/34
f 465/364/34 466/363/34 352/170/34 351/169/34
f 464/365/34 465/364/34 351/169/34 350/168/34
f 462/366/34 463/367/34 349/167/34 348/166/34
f 211/216/34 212/215/34 462/366/34 348/166/34 347/165/34
f 434/211/34 211/216/34 347/165/34 438/164/34
f 209/206/34 210/208/34 346/163/34 345/162/34
f 208/204/34 209/206/34 345/162/34 331/161/34
f 205/196/34 206/199/34 333/159/34 344/158/34
f 204/197/34 205/196/34 344/158/34 343/157/34
f 364/368/34 204/197/34 343/157/34 368/156/34
f 202/189/34 203/191/34 342/155/34 341/154/34
f 201/186/34 202/189/34 341/154/34 340/153/34
f 200/181/34 201/186/34 340/153/34 339/152/34
f 199/183/34 200/181/34 339/152/34 338/151/34
f 198/344/34 199/183/34 338/151/34 337/150/34
f 197/345/34 198/344/34 337/150/34 336/149/34
f 196/346/34 197/345/34 336/149/34 335/148/34
f 195/347/34 196/346/34 335/148/34 327/147/34
f 422/348/34 195/347/34 327/147/34 426/146/34
f 193/325/34 194/349/34 325/145/34 357/144/34
f 203/191/34 364/368/34 368/156/34 342/155/34
f 267/203/34 366/201/34 367/194/34 299/191/34
f 24/198/137 363/200/137 365/301/137 23/299/137
f 520/241/34 505/239/34 358/239/34 236/242/34
f 22/203/49 363/200/49 366/201/49 267/203/49
f 373/197/44 386/193/44 367/194/44 300/197/44
f 342/155/34 368/156/34 362/143/34 171/100/34
f 171/100/34 362/143/34 361/136/34 139/100/34
f 139/100/34 361/136/34 360/137/34 107/100/34
f 616/100/34 638/101/34 359/103/34 75/100/34
f 235/24/11 75/23/11 359/26/11 358/25/11
f 204/197/44 364/368/44 386/193/44 373/197/44
f 320/326/131 378/326/131 384/359/131 323/326/131
f 194/349/112 193/325/112 379/325/112 383/349/112
f 422/348/109 194/349/109 383/349/109 427/348/109
f 196/346/106 195/347/106 382/347/106 381/351/106
f 197/345/104 196/346/104 381/351/104 380/350/104
f 198/344/101 197/345/101 380/350/101 377/344/101
f 193/325/99 224/326/99 378/326/99 379/325/99
f 199/183/98 198/344/98 377/344/98 376/182/98
f 206/199/50 375/199/50 385/199/50 333/199/50
f 206/199/48 205/196/48 374/196/48 375/199/48
f 205/196/46 204/197/46 373/197/46 374/196/46
f 386/193/138 364/368/138 368/368/138
f 203/191/42 202/189/42 371/188/42 372/191/42
f 202/189/40 201/186/40 370/186/40 371/188/40
f 201/186/38 200/181/38 369/181/38 370/186/38
f 200/181/36 199/183/36 376/182/36 369/181/36
f 222/328/133 393/353/133 402/328/133 326/328/133
f 446/369/128 213/220/128 391/219/128 450/358/128
f 577/370/125 214/341/125 401/341/125 581/357/125
f 216/336/122 215/337/122 400/337/122 399/336/122
f 217/335/119 216/336/119 399/336/119 398/356/119
f 218/334/117 217/335/117 398/356/117 397/334/117
f 219/333/115 218/334/115 397/334/115 396/333/115
f 221/329/110 220/330/110 395/330/110 394/329/110
f 222/328/107 221/329/107 394/329/107 393/353/107
f 213/220/64 212/215/64 392/215/64 391/219/64
f 212/215/61 211/216/61 390/216/61 392/215/61
f 434/211/58 210/208/58 389/208/58 439/210/58
f 210/208/56 209/206/56 388/206/56 389/208/56
f 209/206/54 208/204/54 387/204/54 388/206/54
f 304/204/52 387/204/52 403/204/52 332/204/52
f 220/330/113 410/361/113 415/355/113 395/330/113
f 219/333/34 410/361/34 414/173/34 354/172/34
f 54/79/120 409/304/120 412/331/120 283/79/120
f 395/330/113 415/355/113 413/332/113 316/330/113
f 283/79/34 412/331/34 413/332/34 315/333/34
f 56/307/139 409/304/139 411/305/139 55/308/139
f 536/268/34 506/266/34 404/266/34 252/269/34
f 354/172/34 414/173/34 408/128/34 187/127/34
f 187/127/34 408/128/34 407/128/34 155/127/34
f 155/127/34 407/128/34 406/128/34 123/127/34
f 632/127/34 639/128/34 405/128/34 91/127/34
f 251/64/27 91/63/27 405/66/27 404/65/27
f 368/368/140 342/191/140 372/191/140 386/193/140
f 203/191/141 372/191/141 342/191/141
f 414/361/142 354/333/142 396/333/142 415/355/142
f 219/333/143 396/333/143 354/333/143
f 415/355/144 410/361/144 414/361/144
f 422/348/145 427/348/145 426/348/145
f 194/349/34 422/348/34 426/146/34 325/145/34
f 4/314/124 421/323/124 424/323/124 257/314/124
f 382/347/109 427/348/109 425/348/109 291/347/109
f 257/314/34 424/323/34 425/348/34 290/349/34
f 6/321/146 421/323/146 423/324/146 5/322/146
f 511/229/34 507/226/34 416/227/34 227/229/34
f 325/145/34 426/146/34 420/142/34 161/85/34
f 161/85/34 420/142/34 419/88/34 129/85/34
f 129/85/34 419/88/34 418/86/34 97/85/34
f 607/84/34 640/86/34 417/88/34 65/85/34
f 226/4/2 65/3/2 417/6/2 416/5/2
f 434/211/147 439/210/147 438/211/147
f 210/208/34 434/211/34 438/164/34 346/163/34
f 274/185/34 436/179/34 437/211/34 306/208/34
f 38/180/148 433/179/148 435/292/148 37/293/148
f 527/254/34 508/251/34 428/252/34 243/254/34
f 390/216/58 439/210/58 437/211/58 307/216/58
f 36/185/35 433/179/35 436/179/35 274/185/35
f 346/163/34 438/164/34 432/113/34 178/112/34
f 178/112/34 432/113/34 431/138/34 146/112/34
f 146/112/34 431/138/34 430/139/34 114/112/34
f 623/111/34 641/113/34 429/113/34 82/112/34
f 242/40/18 82/39/18 429/42/18 428/41/18
f 327/347/149 426/348/149 427/348/149 382/347/149
f 382/347/150 195/347/150 327/347/150
f 347/216/151 438/211/151 439/210/151 390/216/151
f 390/216/152 211/216/152 347/216/152
f 661/371/128 446/369/128 450/358/128 665/372/128
f 665/372/128 450/358/128 449/358/128 663/373/128
f 42/286/105 445/285/105 448/374/105 277/286/105
f 277/286/34 448/374/34 449/358/34 309/220/34
f 660/375/153 445/285/153 447/288/153 664/376/153
f 652/377/34 509/257/34 440/257/34 651/378/34
f 181/117/34 444/379/34 443/380/34 149/117/34
f 149/117/34 443/380/34 442/379/34 117/117/34
f 626/117/34 642/381/34 441/380/34 85/117/34
f 245/48/21 85/47/21 441/382/21 440/383/21
f 215/337/125 457/384/125 461/385/125 400/337/125
f 400/337/125 461/385/125 460/339/125 311/337/125
f 584/386/108 456/354/108 459/338/108 586/387/108
f 586/387/34 459/338/34 460/339/34 587/388/34
f 46/279/154 456/354/154 458/389/154 45/280/154
f 531/262/34 510/390/34 451/390/34 247/262/34
f 591/391/34 455/120/34 454/120/34 590/392/34
f 590/392/34 454/120/34 453/120/34 589/391/34
f 644/393/34 643/120/34 452/120/34 588/393/34
f 592/394/22 588/395/22 452/54/22 451/53/22
f 212/215/34 213/220/34 463/367/34 462/366/34
f 215/337/34 216/336/34 465/364/34 464/365/34
f 216/336/34 217/335/34 466/363/34 465/364/34
f 217/335/34 218/334/34 467/362/34 466/363/34
f 37/293/102 435/292/102 502/396/102 486/397/102
f 5/322/102 423/324/102 501/398/102 470/399/102
f 55/308/102 411/305/102 500/400/102 494/401/102
f 23/299/102 365/301/102 499/402/102 479/403/102
f 1/313/102 63/312/102 498/404/102 469/405/102
f 63/312/102 61/311/102 497/406/102 498/404/102
f 61/311/102 59/310/102 496/407/102 497/406/102
f 59/310/102 57/309/102 495/408/102 496/407/102
f 57/309/102 55/308/102 494/401/102 495/408/102
f 411/305/102 53/82/102 493/409/102 500/400/102
f 53/82/102 51/81/102 492/410/102 493/409/102
f 51/81/102 49/276/102 491/411/102 492/410/102
f 49/276/102 47/278/102 490/412/102 491/411/102
f 47/278/102 45/280/102 489/413/102 490/412/102
f 41/287/102 39/290/102 487/414/102 488/415/102
f 39/290/102 37/293/102 486/397/102 487/414/102
f 435/292/102 35/291/102 485/416/102 502/396/102
f 35/291/102 33/294/102 484/417/102 485/416/102
f 33/294/102 31/295/102 483/418/102 484/417/102
f 31/295/102 29/296/102 482/419/102 483/418/102
f 29/296/102 27/297/102 481/420/102 482/419/102
f 27/297/102 25/298/102 480/421/102 481/420/102
f 25/298/102 23/299/102 479/403/102 480/421/102
f 365/301/102 21/300/102 478/422/102 499/402/102
f 21/300/102 19/302/102 477/423/102 478/422/102
f 19/302/102 17/303/102 476/424/102 477/423/102
f 17/303/102 15/316/102 475/425/102 476/424/102
f 15/316/102 13/317/102 474/426/102 475/425/102
f 13/317/102 11/318/102 473/427/102 474/426/102
f 11/318/102 9/319/102 472/428/102 473/427/102
f 9/319/102 7/320/102 471/429/102 472/428/102
f 7/320/102 5/322/102 470/399/102 471/429/102
f 423/324/102 3/315/102 468/430/102 501/398/102
f 3/315/102 1/313/102 469/405/102 468/430/102
f 558/431/102 575/432/102 508/251/102 527/254/102
f 542/433/102 574/434/102 507/226/102 511/229/102
f 566/435/102 573/436/102 506/266/102 536/268/102
f 551/437/102 572/438/102 505/239/102 520/241/102
f 571/439/102 570/440/102 540/273/102 503/224/102
f 570/440/102 569/441/102 539/272/102 540/273/102
f 569/441/102 568/442/102 538/270/102 539/272/102
f 568/442/102 567/443/102 537/267/102 538/270/102
f 567/443/102 566/435/102 536/268/102 537/267/102
f 573/436/102 565/444/102 535/265/102 506/266/102
f 565/444/102 564/445/102 534/264/102 535/265/102
f 564/445/102 563/446/102 533/263/102 534/264/102
f 563/446/102 562/447/102 532/261/102 533/263/102
f 562/447/102 561/448/102 531/262/102 532/261/102
f 560/449/102 559/450/102 528/253/102 529/256/102
f 559/450/102 558/431/102 527/254/102 528/253/102
f 575/432/102 557/451/102 526/249/102 508/251/102
f 557/451/102 556/452/102 525/248/102 526/249/102
f 556/452/102 555/453/102 524/247/102 525/248/102
f 555/453/102 554/454/102 523/245/102 524/247/102
f 554/454/102 553/455/102 522/243/102 523/245/102
f 553/455/102 552/456/102 521/240/102 522/243/102
f 552/456/102 551/437/102 520/241/102 521/240/102
f 572/438/102 550/457/102 519/238/102 505/239/102
f 550/457/102 549/458/102 518/237/102 519/238/102
f 549/458/102 548/459/102 517/236/102 518/237/102
f 548/459/102 547/460/102 516/235/102 517/236/102
f 547/460/102 546/461/102 515/234/102 516/235/102
f 546/461/102 545/462/102 514/232/102 515/234/102
f 545/462/102 544/463/102 513/231/102 514/232/102
f 544/463/102 543/464/102 512/228/102 513/231/102
f 543/464/102 542/433/102 511/229/102 512/228/102
f 574/434/102 541/465/102 504/223/102 507/226/102
f 541/465/102 571/439/102 503/224/102 504/223/102
f 468/430/102 469/405/102 571/439/102 541/465/102
f 501/398/102 468/430/102 541/465/102 574/434/102
f 471/429/102 470/399/102 542/433/102 543/464/102
f 472/428/102 471/429/102 543/464/102 544/463/102
f 473/427/102 472/428/102 544/463/102 545/462/102
f 474/426/102 473/427/102 545/462/102 546/461/102
f 475/425/102 474/426/102 546/461/102 547/460/102
f 476/424/102 475/425/102 547/460/102 548/459/102
f 477/423/102 476/424/102 548/459/102 549/458/102
f 478/422/102 477/423/102 549/458/102 550/457/102
f 499/402/102 478/422/102 550/457/102 572/438/102
f 480/421/102 479/403/102 551/437/102 552/456/102
f 481/420/102 480/421/102 552/456/102 553/455/102
f 482/419/102 481/420/102 553/455/102 554/454/102
f 483/418/102 482/419/102 554/454/102 555/453/102
f 484/417/102 483/418/102 555/453/102 556/452/102
f 485/416/102 484/417/102 556/452/102 557/451/102
f 502/396/102 485/416/102 557/451/102 575/432/102
f 487/414/102 486/397/102 558/431/102 559/450/102
f 488/415/102 487/414/102 559/450/102 560/449/102
f 490/412/102 489/413/102 561/448/102 562/447/102
f 491/411/102 490/412/102 562/447/102 563/446/102
f 492/410/102 491/411/102 563/446/102 564/445/102
f 493/409/102 492/410/102 564/445/102 565/444/102
f 500/400/102 493/409/102 565/444/102 573/436/102
f 495/408/102 494/401/102 566/435/102 567/443/102
f 496/407/102 495/408/102 567/443/102 568/442/102
f 497/406/102 496/407/102 568/442/102 569/441/102
f 498/404/102 497/406/102 569/441/102 570/440/102
f 469/405/102 498/404/102 570/440/102 571/439/102
f 479/403/102 499/402/102 572/438/102 551/437/102
f 494/401/102 500/400/102 573/436/102 566/435/102
f 470/399/102 501/398/102 574/434/102 542/433/102
f 486/397/102 502/396/102 575/432/102 558/431/102
f 278/282/34 578/466/34 579/357/34 310/341/34
f 44/282/108 576/281/108 578/466/108 278/282/108
f 585/467/125 577/370/125 581/357/125 583/468/125
f 583/468/125 581/357/125 579/357/125 587/388/125
f 584/386/155 576/281/155 580/284/155 582/469/155
f 456/354/156 584/386/156 582/469/156 458/389/156
f 461/385/125 583/468/125 587/388/125 460/339/125
f 457/384/125 585/467/125 583/468/125 461/385/125
f 578/466/34 586/387/34 587/388/34 579/357/34
f 576/281/108 584/386/108 586/387/108 578/466/108
f 598/470/22 594/471/22 588/395/22 592/394/22
f 645/472/34 644/393/34 588/393/34 594/473/34
f 596/474/34 590/391/34 589/391/34 595/475/34
f 597/476/34 591/391/34 590/391/34 596/474/34
f 510/390/34 593/477/34 592/478/34 451/390/34
f 182/119/34 597/476/34 596/474/34 150/119/34
f 150/119/34 596/474/34 595/475/34 118/119/34
f 627/119/34 645/472/34 594/473/34 86/119/34
f 246/52/22 86/51/22 594/471/22 598/470/22
f 593/477/34 599/258/34 598/260/34 592/477/34
f 530/259/34 605/479/34 600/480/34 246/259/34
f 650/481/34 604/141/34 603/141/34 649/482/34
f 649/482/34 603/141/34 602/141/34 648/483/34
f 653/484/34 646/118/34 601/118/34 647/485/34
f 651/486/21 647/487/21 601/50/21 600/49/21
f 648/483/34 602/141/34 646/118/34 653/484/34
f 118/119/34 595/475/34 645/472/34 627/119/34
f 595/475/34 589/391/34 644/393/34 645/472/34
f 589/391/34 453/120/34 643/120/34 644/393/34
f 117/117/34 442/379/34 642/381/34 626/117/34
f 114/112/34 430/139/34 641/113/34 623/111/34
f 97/85/34 418/86/34 640/86/34 607/84/34
f 123/127/34 406/128/34 639/128/34 632/127/34
f 107/100/34 360/137/34 638/101/34 616/100/34
f 128/135/34 98/83/34 606/83/34 637/134/34
f 127/133/34 128/135/34 637/134/34 636/133/34
f 126/132/34 127/133/34 636/133/34 635/132/34
f 125/131/34 126/132/34 635/132/34 634/131/34
f 124/130/34 125/131/34 634/131/34 633/129/34
f 406/128/34 124/130/34 633/129/34 639/128/34
f 122/126/34 123/127/34 632/127/34 631/125/34
f 121/124/34 122/126/34 631/125/34 630/124/34
f 120/123/34 121/124/34 630/124/34 629/123/34
f 119/122/34 120/123/34 629/123/34 628/121/34
f 453/120/34 119/122/34 628/121/34 643/120/34
f 602/141/34 118/119/34 627/119/34 646/118/34
f 116/116/34 117/117/34 626/117/34 625/116/34
f 115/115/34 116/116/34 625/116/34 624/114/34
f 430/139/34 115/115/34 624/114/34 641/113/34
f 113/110/34 114/112/34 623/111/34 622/109/34
f 112/108/34 113/110/34 622/109/34 621/107/34
f 111/106/34 112/108/34 621/107/34 620/106/34
f 110/105/34 111/106/34 620/106/34 619/105/34
f 109/104/34 110/105/34 619/105/34 618/104/34
f 108/102/34 109/104/34 618/104/34 617/102/34
f 360/137/34 108/102/34 617/102/34 638/101/34
f 106/99/34 107/100/34 616/100/34 615/98/34
f 105/97/34 106/99/34 615/98/34 614/97/34
f 104/96/34 105/97/34 614/97/34 613/95/34
f 103/94/34 104/96/34 613/95/34 612/93/34
f 102/92/34 103/94/34 612/93/34 611/91/34
f 101/90/34 102/92/34 611/91/34 610/90/34
f 100/89/34 101/90/34 610/90/34 609/89/34
f 99/87/34 100/89/34 609/89/34 608/87/34
f 418/86/34 99/87/34 608/87/34 640/86/34
f 98/83/34 97/85/34 607/84/34 606/83/34
f 442/379/34 648/483/34 653/484/34 642/381/34
f 440/383/21 441/382/21 647/487/21 651/486/21
f 642/381/34 653/484/34 647/485/34 441/381/34
f 443/379/34 649/482/34 648/483/34 442/379/34
f 444/379/34 650/481/34 649/482/34 443/379/34
f 605/479/34 652/377/34 651/378/34 600/479/34
f 44/282/157 656/352/157 654/488/157 43/283/157
f 401/341/128 655/489/128 659/342/128 310/341/128
f 214/341/128 657/342/128 655/489/128 401/341/128
f 181/117/34 349/167/34 463/367/34 213/220/34 446/369/34 661/371/34 657/342/34 214/341/34 577/370/34 585/467/34 457/384/34 215/337/34 464/365/34 350/168/34 183/122/34 455/120/34 591/391/34 597/476/34 182/119/34 604/141/34 650/481/34 444/379/34
f 660/375/105 656/352/105 658/340/105 662/490/105
f 662/490/34 658/340/34 659/342/34 663/373/34
f 448/374/34 662/490/34 663/373/34 449/358/34
f 445/285/105 660/375/105 662/490/105 448/374/105
f 656/352/158 660/375/158 664/376/158 654/488/158
f 655/489/128 665/372/128 663/373/128 659/342/128
f 657/342/128 661/371/128 665/372/128 655/489/128
f 43/283/102 654/488/102 664/376/102 447/288/102 41/287/102 488/415/102 560/449/102 529/256/102 509/257/102 652/377/102 605/479/102 530/259/102 599/258/102 593/477/102 510/390/102 531/262/102 561/448/102 489/413/102 45/280/102 458/389/102 582/469/102 580/284/102
o Cilindro.002
v 4.983801 0.355505 -0.814588
v 4.983801 0.428766 -0.722268
v 5.136435 0.355505 -0.798960
v 5.119110 0.428766 -0.708414
v 5.283203 0.355505 -0.752676
v 5.249218 0.428766 -0.667384
v 5.418465 0.355505 -0.677515
v 5.369127 0.428766 -0.600754
v 5.537023 0.355505 -0.576366
v 5.474228 0.428766 -0.511086
v 5.634321 0.355505 -0.453115
v 5.560483 0.428766 -0.401825
v 5.706620 0.355505 -0.312499
v 5.624575 0.428766 -0.277170
v 5.751142 0.355505 -0.159922
v 5.664043 0.428766 -0.141911
v 5.766175 0.355505 -0.001247
v 5.677370 0.428766 -0.001247
v 5.751142 0.355505 0.157428
v 5.664043 0.428766 0.139418
v 5.706620 0.355505 0.310006
v 5.624575 0.428766 0.274676
v 5.634321 0.355505 0.450622
v 5.560483 0.428766 0.399331
v 5.537023 0.355505 0.573873
v 5.474228 0.428766 0.508592
v 5.418465 0.355505 0.675022
v 5.283203 0.355505 0.750183
v 5.138049 0.428766 0.623539
v 5.136435 0.355505 0.796467
v 5.105322 0.428766 0.633859
v 4.983801 0.355505 0.812095
v 4.983801 0.428766 0.646302
v 4.831168 0.355505 0.796467
v 4.862281 0.428766 0.633859
v 4.684400 0.355505 0.750183
v 4.745430 0.428766 0.597010
v 4.549138 0.355505 0.675022
v 4.637741 0.428766 0.537170
v 4.430580 0.355505 0.573873
v 4.543349 0.428766 0.456639
v 4.333282 0.355505 0.450622
v 4.465885 0.428766 0.358512
v 4.260983 0.355505 0.310006
v 4.408323 0.428766 0.246559
v 4.216461 0.355505 0.157428
v 4.372877 0.428766 0.125084
v 4.201428 0.355505 -0.001247
v 4.360908 0.428766 -0.001247
v 4.216461 0.355505 -0.159922
v 4.372877 0.428766 -0.127577
v 4.260983 0.355505 -0.312499
v 4.408323 0.428766 -0.249053
v 4.333282 0.355505 -0.453115
v 4.465885 0.428766 -0.361005
v 4.430580 0.355505 -0.576366
v 4.487581 0.428766 -0.388489
v 4.549138 0.355505 -0.677515
v 4.684400 0.355505 -0.752676
v 4.718384 0.428766 -0.667384
v 4.831168 0.355505 -0.798960
v 4.848493 0.428766 -0.708414
v 5.136435 0.428766 -0.798960
v 4.983801 0.428766 -0.814588
v 5.283203 0.428766 -0.752676
v 5.418465 0.428766 -0.677515
v 5.537023 0.428766 -0.576366
v 5.634321 0.428766 -0.453115
v 5.706620 0.428766 -0.312499
v 5.751142 0.428766 -0.159922
v 5.766175 0.428766 -0.001247
v 5.751142 0.428766 0.157428
v 5.706620 0.428766 0.310006
v 5.634321 0.428766 0.450622
v 5.537023 0.428766 0.573873
v 5.418465 0.428766 0.675022
v 5.283203 0.428766 0.750183
v 5.136435 0.428766 0.796467
v 4.983801 0.428766 0.812095
v 4.831168 0.428766 0.796467
v 4.684400 0.428766 0.750183
v 4.549138 0.428766 0.675022
v 4.430580 0.428766 0.573873
v 4.333282 0.428766 0.450622
v 4.260983 0.428766 0.310006
v 4.216461 0.428766 0.157428
v 4.201428 0.428766 -0.001247
v 4.216461 0.428766 -0.159922
v 4.260983 0.428766 -0.312499
v 4.333282 0.428766 -0.453115
v 4.430580 0.428766 -0.576366
v 4.549138 0.428766 -0.677515
v 4.684400 0.428766 -0.752676
v 4.831168 0.428766 -0.798960
v 5.119110 0.428766 0.705920
v 5.249218 0.428766 0.664890
v 4.983801 0.428766 0.719775
v 4.848493 0.428766 0.705920
v 4.718384 0.428766 0.664890
v 4.598475 0.428766 0.598261
v 4.493374 0.428766 0.508592
v 4.407120 0.428766 0.399331
v 4.343028 0.428766 0.274676
v 4.303559 0.428766 0.139418
v 4.290233 0.428766 -0.001247
v 4.303559 0.428766 -0.141911
v 4.343028 0.428766 -0.277170
v 4.407120 0.428766 -0.401825
v 4.493374 0.428766 -0.511086
v 5.119110 0.428766 0.705920
v 5.249218 0.428766 0.664890
v 4.983801 0.428766 0.719775
v 4.848493 0.428766 0.705920
v 4.718384 0.428766 0.664890
v 4.598475 0.428766 0.598261
v 4.493374 0.428766 0.508592
v 4.407120 0.428766 0.399331
v 4.343028 0.428766 0.274676
v 4.303559 0.428766 0.139418
v 4.290233 0.428766 -0.001247
v 4.303559 0.428766 -0.141911
v 4.343028 0.428766 -0.277170
v 4.407120 0.428766 -0.401825
v 4.493374 0.428766 -0.511086
v 4.888551 0.428766 0.235359
v 4.953168 0.428766 0.335893
v 5.019897 0.428766 0.439713
v 5.065323 0.428766 0.510388
v 5.101534 0.428766 0.566726
v 4.822309 0.428766 0.132296
v 4.755137 0.428766 0.027788
v 4.689165 0.428766 -0.074855
v 4.626755 0.428766 -0.171955
v 4.569853 0.428766 -0.260486
v 4.528386 0.428766 -0.325003
v 5.105322 0.356358 0.633859
v 5.138049 0.356358 0.623539
v 4.983801 0.356358 0.646302
v 4.745430 0.356358 0.597010
v 4.862281 0.356358 0.633859
v 4.543349 0.356358 0.456639
v 4.637741 0.356358 0.537170
v 4.372877 0.356358 0.125084
v 4.408323 0.356358 0.246559
v 4.372877 0.356358 -0.127577
v 4.360908 0.356358 -0.001247
v 4.465885 0.356358 -0.361005
v 4.408323 0.356358 -0.249053
v 4.487581 0.356358 -0.388489
v 4.528386 0.356358 -0.325003
v 4.953168 0.356358 0.335893
v 4.888551 0.356358 0.235359
v 5.065323 0.356358 0.510388
v 5.019897 0.356358 0.439713
v 5.101534 0.356358 0.566726
v 4.755137 0.356358 0.027788
v 4.689165 0.356358 -0.074855
v 4.626755 0.356358 -0.171955
v 4.569853 0.356358 -0.260486
v 5.096306 0.428766 -0.079396
v 4.871296 0.428766 0.076902
v 4.871296 0.428766 0.076902
v 5.474228 0.428766 0.508592
v 5.474228 0.428766 0.508592
v 5.096306 0.428766 -0.079396
v 5.096306 0.428766 -0.079396
v 5.096306 0.428766 -0.079396
v 5.096306 0.428766 -0.079396
v 5.474228 0.428766 0.508592
v 5.474228 0.428766 0.508592
v 5.474228 0.428766 0.508592
v 5.474228 0.428766 0.508592
v 5.096306 0.428766 -0.079396
v 5.096306 0.428766 -0.079396
v 5.136435 0.454149 -0.798960
v 4.983801 0.454149 -0.814588
v 5.283203 0.454149 -0.752676
v 5.418465 0.454149 -0.677515
v 5.537023 0.454149 -0.576366
v 5.634321 0.454149 -0.453115
v 5.706620 0.454149 -0.312499
v 5.751142 0.454149 -0.159922
v 5.766175 0.454149 -0.001247
v 5.751142 0.454149 0.157428
v 5.706620 0.454149 0.310006
v 5.634321 0.454149 0.450622
v 5.537023 0.454149 0.573873
v 5.418465 0.454149 0.675022
v 5.283203 0.454149 0.750183
v 5.136435 0.454149 0.796467
v 4.983801 0.454149 0.812095
v 4.831168 0.454149 0.796467
v 4.684400 0.454149 0.750183
v 4.549138 0.454149 0.675022
v 4.430580 0.454149 0.573873
v 4.333282 0.454149 0.450622
v 4.260983 0.454149 0.310006
v 4.216461 0.454149 0.157428
v 4.201428 0.454149 -0.001247
v 4.216461 0.454149 -0.159922
v 4.260983 0.454149 -0.312499
v 4.333282 0.454149 -0.453115
v 4.430580 0.454149 -0.576366
v 4.549138 0.454149 -0.677515
v 4.684400 0.454149 -0.752676
v 4.831168 0.454149 -0.798960
v 5.119110 0.454149 -0.708414
v 4.983801 0.454149 -0.722268
v 5.249218 0.454149 -0.667384
v 5.369127 0.454149 -0.600754
v 5.474228 0.454149 -0.511086
v 5.560483 0.454149 -0.401825
v 5.624575 0.454149 -0.277170
v 5.664043 0.454149 -0.141911
v 5.677370 0.454149 -0.001247
v 5.664043 0.454149 0.139418
v 5.624575 0.454149 0.274676
v 5.560483 0.454149 0.399331
v 5.474228 0.454149 0.508592
v 5.474228 0.454149 0.508592
v 5.474228 0.454149 0.508592
v 5.474228 0.454149 0.508592
v 5.249218 0.454149 0.664890
v 5.369127 0.454149 0.598261
v 5.119110 0.454149 0.705920
v 4.983801 0.454149 0.719775
v 4.848493 0.454149 0.705920
v 4.718384 0.454149 0.664890
v 4.598475 0.454149 0.598261
v 4.493374 0.454149 0.508592
v 4.407120 0.454149 0.399331
v 4.343028 0.454149 0.274676
v 4.303559 0.454149 0.139418
v 4.290233 0.454149 -0.001247
v 4.303559 0.454149 -0.141911
v 4.343028 0.454149 -0.277170
v 4.407120 0.454149 -0.401825
v 4.493374 0.454149 -0.511086
v 4.598475 0.454149 -0.600754
v 4.718384 0.454149 -0.667384
v 4.848493 0.454149 -0.708414
v 5.096306 0.454149 -0.079396
v 5.096306 0.454149 -0.079396
v 4.983801 0.454149 -0.001247
v 5.096306 0.454149 -0.079396
v 4.871296 0.454149 0.076902
v 5.096306 0.454149 -0.079396
v 5.096306 0.454149 -0.079396
v 5.474228 0.454149 0.508592
v 5.474228 0.454149 0.508592
v 5.474228 0.454149 0.508592
v 5.096306 0.454149 -0.079396
v 5.096306 0.454149 -0.079396
vn 0.1019 -0.0000 -0.9948
vn 0.3008 -0.0000 -0.9537
vn 0.4857 -0.0000 -0.8741
vn 0.6490 -0.0000 -0.7608
vn 0.7849 -0.0000 -0.6196
vn 0.8893 -0.0000 -0.4573
vn 0.9600 -0.0000 -0.2801
vn 0.9955 -0.0000 -0.0943
vn 0.9955 -0.0000 0.0943
vn 0.9600 -0.0000 0.2801
vn 0.8893 -0.0000 0.4573
vn 0.7849 -0.0000 0.6196
vn 0.6490 -0.0000 0.7608
vn 0.4857 -0.0000 0.8741
vn 0.3008 -0.0000 0.9537
vn 0.1019 -0.0000 0.9948
vn -0.1019 -0.0000 0.9948
vn -0.3008 -0.0000 0.9537
vn -0.4857 -0.0000 0.8741
vn -0.6490 -0.0000 0.7608
vn -0.7849 -0.0000 0.6196
vn -0.8893 -0.0000 0.4573
vn -0.9600 -0.0000 0.2801
vn -0.9955 -0.0000 0.0943
vn -0.9955 -0.0000 -0.0943
vn -0.9600 -0.0000 -0.2801
vn -0.8893 -0.0000 -0.4573
vn -0.7849 -0.0000 -0.6196
vn -0.6490 -0.0000 -0.7608
vn -0.4857 -0.0000 -0.8741
vn -0.0000 1.0000 -0.0000
vn -0.3008 -0.0000 -0.9537
vn -0.1019 -0.0000 -0.9948
vn 0.8412 -0.0000 -0.5407
vn -0.8412 -0.0000 0.5407
vn -0.5379 -0.0000 -0.8430
vn -0.5403 -0.0000 -0.8415
vn -0.0000 -1.0000 -0.0000
vn 0.5593 -0.0000 0.8289
vn 0.4972 -0.0000 0.8676
vn -0.5335 -0.0000 -0.8458
vn -0.5346 -0.0000 -0.8451
vn -0.5196 -0.0000 -0.8544
vn 0.5343 -0.0000 0.8453
vn 0.5397 -0.0000 0.8419
vn 0.5600 -0.0000 0.8285
vn -0.0005 -1.0000 -0.0051
vn 0.0005 -1.0000 -0.0051
vn 0.0016 -1.0000 -0.0049
vn 0.0025 -1.0000 -0.0046
vn 0.0034 -1.0000 -0.0040
vn 0.0043 -1.0000 -0.0028
vn 0.0051 -1.0000 -0.0015
vn 0.0053 -1.0000 -0.0005
vn 0.0053 -1.0000 0.0005
vn 0.0051 -1.0000 0.0015
vn 0.0047 -1.0000 0.0024
vn 0.0042 -1.0000 0.0033
vn -0.0016 -1.0000 -0.0049
vn -0.0134 -0.9999 0.0086
vt 1.000000 0.500000
vt 1.000000 1.000000
vt 0.968750 1.000000
vt 0.968750 0.500000
vt 0.937500 1.000000
vt 0.937500 0.500000
vt 0.906250 1.000000
vt 0.906250 0.500000
vt 0.875000 1.000000
vt 0.875000 0.500000
vt 0.843750 1.000000
vt 0.843750 0.500000
vt 0.812500 1.000000
vt 0.812500 0.500000
vt 0.781250 1.000000
vt 0.781250 0.500000
vt 0.750000 1.000000
vt 0.750000 0.500000
vt 0.718750 1.000000
vt 0.718750 0.500000
vt 0.687500 1.000000
vt 0.687500 0.500000
vt 0.656250 1.000000
vt 0.656250 0.500000
vt 0.625000 1.000000
vt 0.625000 0.500000
vt 0.593750 1.000000
vt 0.593750 0.500000
vt 0.562500 1.000000
vt 0.562500 0.500000
vt 0.531250 1.000000
vt 0.531250 0.500000
vt 0.500000 1.000000
vt 0.500000 0.500000
vt 0.468750 1.000000
vt 0.468750 0.500000
vt 0.437500 1.000000
vt 0.437500 0.500000
vt 0.406250 1.000000
vt 0.406250 0.500000
vt 0.375000 1.000000
vt 0.375000 0.500000
vt 0.343750 1.000000
vt 0.343750 0.500000
vt 0.312500 1.000000
vt 0.312500 0.500000
vt 0.281250 1.000000
vt 0.281250 0.500000
vt 0.250000 1.000000
vt 0.250000 0.500000
vt 0.218750 1.000000
vt 0.218750 0.500000
vt 0.187500 1.000000
vt 0.187500 0.500000
vt 0.156250 1.000000
vt 0.156250 0.500000
vt 0.125000 1.000000
vt 0.125000 0.500000
vt 0.093750 1.000000
vt 0.093750 0.500000
vt 0.062500 1.000000
vt 0.062500 0.500000
vt 0.400443 0.099557
vt 0.284512 0.273060
vt 0.400443 0.099557
vt 0.031250 1.000000
vt 0.031250 0.500000
vt 0.000000 1.000000
vt 0.000000 0.500000
vt 0.140473 0.300372
vt 0.159618 0.271720
vt 0.400443 0.099557
vt 0.041330 0.208493
vt 0.037242 0.250000
vt 0.053437 0.168581
vt 0.073098 0.131798
vt 0.099557 0.099557
vt 0.131798 0.073098
vt 0.168581 0.053437
vt 0.215488 0.226940
vt 0.331419 0.053437
vt 0.208493 0.041330
vt 0.250000 0.037242
vt 0.291507 0.041330
vt 0.099557 0.400443
vt 0.400443 0.099557
vt 0.275007 0.099027
vt 0.261073 0.119882
vt 0.041330 0.291507
vt 0.053437 0.331419
vt 0.073098 0.368202
vt 0.297317 0.065639
vt 0.287277 0.062594
vt 0.250000 0.058922
vt 0.212722 0.062594
vt 0.176878 0.073467
vt 0.143843 0.091124
vt 0.114887 0.114887
vt 0.091124 0.143843
vt 0.073467 0.176878
vt 0.062594 0.212722
vt 0.058922 0.250000
vt 0.062594 0.287277
vt 0.073467 0.323122
vt 0.091124 0.356157
vt 0.097780 0.364267
vt 0.110297 0.345534
vt 0.123018 0.326496
vt 0.179855 0.241432
vt 0.200461 0.210594
vt 0.220781 0.180183
vt 0.240603 0.150517
vt 0.286115 0.082403
vt 0.000000 0.000000
vt 0.284512 0.273060
vt 0.291507 0.458670
vt 0.250000 0.462758
vt 0.208493 0.458670
vt 0.168581 0.446563
vt 0.426902 0.131798
vt 0.446563 0.168581
vt 0.458670 0.208493
vt 0.462758 0.250000
vt 0.458670 0.291507
vt 0.446563 0.331419
vt 0.426902 0.368202
vt 0.400443 0.400443
vt 0.368202 0.426902
vt 0.331419 0.446563
vt 0.296822 0.485388
vt 0.250000 0.490000
vt 0.341844 0.471731
vt 0.383337 0.449553
vt 0.419706 0.419706
vt 0.449553 0.383337
vt 0.471731 0.341844
vt 0.485388 0.296822
vt 0.490000 0.250000
vt 0.485388 0.203178
vt 0.471731 0.158156
vt 0.449553 0.116663
vt 0.419706 0.080294
vt 0.368202 0.073098
vt 0.383337 0.050447
vt 0.341844 0.028269
vt 0.296822 0.014612
vt 0.250000 0.010000
vt 0.203178 0.014612
vt 0.158156 0.028269
vt 0.116663 0.050447
vt 0.080294 0.080294
vt 0.050447 0.116663
vt 0.028269 0.158156
vt 0.014612 0.203178
vt 0.010000 0.250000
vt 0.014612 0.296822
vt 0.028269 0.341844
vt 0.050447 0.383337
vt 0.080294 0.419706
vt 0.131798 0.426902
vt 0.116663 0.449553
vt 0.158156 0.471731
vt 0.203178 0.485388
vt 0.250000 0.250000
s 0
f 666/491/159 729/492/159 728/493/159 668/494/159
f 668/494/160 728/493/160 730/495/160 670/496/160
f 670/496/161 730/495/161 731/497/161 672/498/161
f 672/498/162 731/497/162 732/499/162 674/500/162
f 674/500/163 732/499/163 733/501/163 676/502/163
f 676/502/164 733/501/164 734/503/164 678/504/164
f 678/504/165 734/503/165 735/505/165 680/506/165
f 680/506/166 735/505/166 736/507/166 682/508/166
f 682/508/167 736/507/167 737/509/167 684/510/167
f 684/510/168 737/509/168 738/511/168 686/512/168
f 686/512/169 738/511/169 739/513/169 688/514/169
f 688/514/170 739/513/170 740/515/170 690/516/170
f 690/516/171 740/515/171 741/517/171 692/518/171
f 692/518/172 741/517/172 742/519/172 693/520/172
f 693/520/173 742/519/173 743/521/173 695/522/173
f 695/522/174 743/521/174 744/523/174 697/524/174
f 697/524/175 744/523/175 745/525/175 699/526/175
f 699/526/176 745/525/176 746/527/176 701/528/176
f 701/528/177 746/527/177 747/529/177 703/530/177
f 703/530/178 747/529/178 748/531/178 705/532/178
f 705/532/179 748/531/179 749/533/179 707/534/179
f 707/534/180 749/533/180 750/535/180 709/536/180
f 709/536/181 750/535/181 751/537/181 711/538/181
f 711/538/182 751/537/182 752/539/182 713/540/182
f 713/540/183 752/539/183 753/541/183 715/542/183
f 715/542/184 753/541/184 754/543/184 717/544/184
f 717/544/185 754/543/185 755/545/185 719/546/185
f 719/546/186 755/545/186 756/547/186 721/548/186
f 721/548/187 756/547/187 757/549/187 723/550/187
f 723/550/188 757/549/188 758/551/188 724/552/188
f 828/553/189 831/554/189 830/554/189 834/555/189
f 724/552/190 758/551/190 759/556/190 726/557/190
f 726/557/191 759/556/191 729/558/191 666/559/191
f 798/560/192 797/561/192 822/561/192 823/560/192
f 829/553/189 837/562/189 915/562/189 886/553/189
f 769/563/166 770/564/166 899/564/166 898/563/166
f 733/501/163 732/499/163 844/499/163 845/501/163
f 835/555/189 828/555/189 885/555/189 914/555/189
f 759/556/190 758/551/190 870/551/190 871/556/190
f 768/565/165 769/563/165 898/563/165 897/565/165
f 750/535/180 749/533/180 861/533/180 862/535/180
f 767/566/164 768/565/164 897/565/164 896/566/164
f 741/517/171 740/515/171 852/515/171 853/517/171
f 832/554/189 838/554/189 912/554/189 913/554/189
f 766/567/163 767/566/163 896/566/163 895/567/163
f 732/499/162 731/497/162 843/497/162 844/499/162
f 758/551/188 757/549/188 869/549/188 870/551/188
f 765/568/162 766/567/162 895/567/162 894/568/162
f 749/533/179 748/531/179 860/531/179 861/533/179
f 764/569/161 765/568/161 894/568/161 893/569/161
f 825/554/189 830/554/189 908/554/189 907/554/189
f 740/515/170 739/513/170 851/513/170 852/515/170
f 826/570/193 761/571/193 888/571/193 911/570/193
f 763/572/160 764/569/160 893/569/160 892/572/160
f 731/497/161 730/495/161 842/495/161 843/497/161
f 757/549/187 756/547/187 868/547/187 869/549/187
f 762/573/159 763/572/159 892/572/159 891/573/159
f 748/531/178 747/529/178 859/529/178 860/531/178
f 760/574/191 762/573/191 891/573/191 890/574/191
f 739/513/169 738/511/169 850/511/169 851/513/169
f 761/571/190 760/574/190 890/574/190 888/571/190
f 730/495/160 728/493/160 840/493/160 842/495/160
f 774/575/193 826/570/193 911/570/193 903/575/193
f 756/547/186 755/545/186 867/545/186 868/547/186
f 837/562/192 839/554/192 918/554/192 915/562/192
f 830/554/189 831/554/189 910/554/189 908/554/189
f 747/529/177 746/527/177 858/527/177 859/529/177
f 836/576/189 829/553/189 886/553/189 887/576/189
f 793/577/193 792/578/193 819/578/193 818/577/193
f 776/571/189 775/574/189 760/574/189 761/571/189
f 775/574/189 777/573/189 762/573/189 760/574/189
f 777/573/189 778/572/189 763/572/189 762/573/189
f 778/572/189 779/569/189 764/569/189 763/572/189
f 779/569/189 780/568/189 765/568/189 764/569/189
f 780/568/189 781/567/189 766/567/189 765/568/189
f 781/567/189 782/566/189 767/566/189 766/567/189
f 782/566/189 783/565/189 768/565/189 767/566/189
f 783/565/189 784/563/189 769/563/189 768/565/189
f 784/563/189 785/564/189 770/564/189 769/563/189
f 785/564/189 786/579/189 771/579/189 770/564/189
f 786/579/189 787/580/189 772/580/189 771/579/189
f 787/580/189 788/581/189 773/581/189 772/580/189
f 788/581/189 789/575/189 774/575/189 773/581/189
f 827/570/189 776/571/189 761/571/189 826/570/189
f 694/582/189 696/583/189 775/574/189 776/571/189
f 696/583/189 698/584/189 777/573/189 775/574/189
f 698/584/189 700/585/189 778/572/189 777/573/189
f 700/585/189 702/586/189 779/569/189 778/572/189
f 702/586/189 704/587/189 780/568/189 779/569/189
f 704/587/189 706/588/189 781/567/189 780/568/189
f 706/588/189 708/589/189 782/566/189 781/567/189
f 708/589/189 710/590/189 783/565/189 782/566/189
f 710/590/189 712/591/189 784/563/189 783/565/189
f 712/591/189 714/592/189 785/564/189 784/563/189
f 714/592/189 716/593/189 786/579/189 785/564/189
f 716/593/189 718/594/189 787/580/189 786/579/189
f 718/594/189 720/595/189 788/581/189 787/580/189
f 720/595/189 722/596/189 789/575/189 788/581/189
f 722/596/189 800/597/189 799/598/189 798/560/189 797/561/189 796/599/189 795/600/189 790/601/189 791/602/189 792/578/189 793/577/189 794/603/189 694/582/189 776/571/189 827/570/189 789/575/189
f 706/588/189 790/601/189 795/600/189 708/589/189
f 798/560/193 799/598/193 824/598/193 823/560/193
f 702/586/189 792/578/189 791/602/189 704/587/189
f 704/587/194 791/602/194 816/602/194 807/587/194
f 698/584/189 794/603/189 793/577/189 700/585/189
f 708/589/189 795/600/189 796/599/189 710/590/189
f 702/586/160 700/585/160 805/585/160 804/586/160
f 712/591/189 797/561/189 798/560/189 714/592/189
f 716/593/167 714/592/167 811/592/167 810/593/167
f 716/593/189 799/598/189 800/597/189 718/594/189
f 714/592/195 798/560/195 823/560/195 811/592/195
f 799/598/192 824/598/192 815/597/192 800/597/192
f 824/598/196 810/593/196 813/594/196 815/597/196
f 822/561/196 808/591/196 811/592/196 823/560/196
f 818/577/196 820/603/196 803/584/196 805/585/196
f 816/602/196 819/578/196 804/586/196 807/587/196
f 817/601/196 806/588/196 809/590/196 821/599/196
f 799/598/197 716/593/197 810/593/197 824/598/197
f 720/595/169 718/594/169 813/594/169 812/595/169
f 706/588/162 704/587/162 807/587/162 806/588/162
f 792/578/198 702/586/198 804/586/198 819/578/198
f 722/596/170 720/595/170 812/595/170 814/596/170
f 710/590/199 796/599/199 821/599/199 809/590/199
f 718/594/200 800/597/200 815/597/200 813/594/200
f 800/597/193 722/596/193 814/596/193 815/597/193
f 796/599/193 797/561/193 822/561/193 821/599/193
f 700/585/201 793/577/201 818/577/201 805/585/201
f 696/583/190 694/582/190 802/582/190 801/583/190
f 791/602/193 790/601/193 817/601/193 816/602/193
f 797/561/202 712/591/202 808/591/202 822/561/202
f 712/591/165 710/590/165 809/590/165 808/591/165
f 694/582/193 794/603/193 820/603/193 802/582/193
f 698/584/191 696/583/191 801/583/191 803/584/191
f 790/601/203 706/588/203 806/588/203 817/601/203
f 794/603/204 698/584/204 803/584/204 820/603/204
f 790/604/192 817/604/192 821/604/192 796/604/192 795/604/192
f 792/604/192 819/604/192 816/604/192 791/604/192
f 794/604/192 820/604/192 818/604/192 793/604/192
f 695/522/205 697/524/205 803/584/205 801/583/205
f 697/524/206 699/526/206 805/585/206 803/584/206
f 699/526/207 701/528/207 804/586/207 805/585/207
f 701/528/208 703/530/208 807/587/208 804/586/208
f 703/530/209 705/532/209 806/588/209 807/587/209
f 705/532/210 707/534/210 709/536/210 809/590/210 806/588/210
f 709/536/211 711/538/211 808/591/211 809/590/211
f 713/540/212 811/592/212 808/591/212 711/538/212
f 713/540/213 715/542/213 810/593/213 811/592/213
f 717/544/214 813/594/214 810/593/214 715/542/214
f 717/544/215 719/546/215 812/595/215 813/594/215
f 719/546/216 721/548/216 814/596/216 812/595/216
f 693/520/217 695/522/217 801/583/217 802/582/217
f 814/596/218 721/548/218 693/520/218 802/582/218
f 692/518/196 693/520/196 721/548/196 723/550/196
f 690/516/196 692/518/196 723/550/196 724/552/196
f 666/559/196 668/494/196 670/496/196 672/498/196 674/500/196 676/502/196 678/504/196 680/506/196 682/508/196 684/510/196 686/512/196 688/514/196 690/516/196 724/552/196 726/557/196
f 789/575/189 827/570/189 826/570/189 774/575/189
f 836/576/189 838/554/189 832/554/189 829/553/189
f 738/511/168 737/509/168 849/509/168 850/511/168
f 835/555/189 833/554/189 831/605/189 828/555/189
f 829/553/189 832/554/189 839/554/189 837/562/189
f 834/555/189 830/554/189 825/554/189 691/553/189
f 669/606/189 667/607/189 727/608/189 725/609/189 833/554/189 835/555/189 689/610/189 687/611/189 685/612/189 683/613/189 681/614/189 679/615/189 677/616/189 675/617/189 673/618/189 671/619/189
f 691/553/189 825/554/189 838/554/189 836/576/189
f 828/553/189 834/555/189 884/555/189 885/553/189
f 873/607/189 872/606/189 840/620/189 841/621/189
f 872/606/189 874/619/189 842/622/189 840/620/189
f 874/619/189 875/618/189 843/623/189 842/622/189
f 875/618/189 876/617/189 844/624/189 843/623/189
f 876/617/189 877/616/189 845/625/189 844/624/189
f 877/616/189 878/615/189 846/626/189 845/625/189
f 878/615/189 879/614/189 847/627/189 846/626/189
f 879/614/189 880/613/189 848/628/189 847/627/189
f 880/613/189 881/612/189 849/629/189 848/628/189
f 881/612/189 882/611/189 850/630/189 849/629/189
f 882/611/189 883/610/189 851/631/189 850/630/189
f 883/610/189 914/555/189 885/555/189 884/555/189 916/576/189 852/632/189 851/631/189
f 916/576/189 887/576/189 886/562/189 915/562/189 889/633/189 853/634/189 852/632/189
f 889/633/189 888/571/189 854/635/189 853/634/189
f 888/571/189 890/574/189 855/636/189 854/635/189
f 890/574/189 891/573/189 856/637/189 855/636/189
f 891/573/189 892/572/189 857/638/189 856/637/189
f 892/572/189 893/569/189 858/639/189 857/638/189
f 893/569/189 894/568/189 859/640/189 858/639/189
f 894/568/189 895/567/189 860/641/189 859/640/189
f 895/567/189 896/566/189 861/642/189 860/641/189
f 896/566/189 897/565/189 862/643/189 861/642/189
f 897/565/189 898/563/189 863/644/189 862/643/189
f 898/563/189 899/564/189 864/645/189 863/644/189
f 899/564/189 900/579/189 865/646/189 864/645/189
f 900/579/189 901/580/189 866/647/189 865/646/189
f 901/580/189 902/581/189 867/648/189 866/647/189
f 902/581/189 903/575/189 868/649/189 867/648/189
f 903/575/189 904/650/189 869/651/189 868/649/189
f 904/650/189 905/609/189 870/652/189 869/651/189
f 905/609/189 906/608/189 871/653/189 870/652/189
f 906/608/189 873/607/189 841/621/189 871/653/189
f 909/654/189 904/650/189 903/575/189 911/570/189
f 907/605/189 908/554/189 910/605/189 917/554/189 905/609/189 904/650/189 909/654/189 918/554/189 913/554/189 912/554/189
f 889/633/189 909/654/189 911/570/189 888/571/189
f 915/562/189 918/554/189 909/654/189 889/633/189
f 742/519/172 741/517/172 853/517/172 854/519/172
f 770/564/167 771/579/167 900/579/167 899/564/167
f 751/537/181 750/535/181 862/535/181 863/537/181
f 771/579/168 772/580/168 901/580/168 900/579/168
f 729/558/191 759/556/191 871/556/191 841/558/191
f 831/605/189 833/554/189 917/554/189 910/605/189
f 734/503/164 733/501/164 845/501/164 846/503/164
f 772/580/169 773/581/169 902/581/169 901/580/169
f 667/607/175 669/606/175 872/606/175 873/607/175
f 839/554/189 832/554/189 913/554/189 918/554/189
f 743/521/173 742/519/173 854/519/173 855/521/173
f 773/581/170 774/575/170 903/575/170 902/581/170
f 669/606/176 671/619/176 874/619/176 872/606/176
f 752/539/182 751/537/182 863/537/182 864/539/182
f 671/619/177 673/618/177 875/618/177 874/619/177
f 735/505/165 734/503/165 846/503/165 847/505/165
f 673/618/178 675/617/178 876/617/178 875/618/178
f 833/554/192 725/609/192 905/609/192 917/554/192
f 744/523/174 743/521/174 855/521/174 856/523/174
f 725/609/173 727/608/173 906/608/173 905/609/173
f 675/617/179 677/616/179 877/616/179 876/617/179
f 834/555/189 691/553/189 916/553/189 884/555/189
f 753/541/183 752/539/183 864/539/183 865/541/183
f 727/608/174 667/607/174 873/607/174 906/608/174
f 677/616/180 679/615/180 878/615/180 877/616/180
f 689/610/186 835/555/186 914/555/186 883/610/186
f 736/507/166 735/505/166 847/505/166 848/507/166
f 679/615/181 681/614/181 879/614/181 878/615/181
f 691/553/189 836/576/189 887/576/189 916/553/189
f 745/525/175 744/523/175 856/523/175 857/525/175
f 681/614/182 683/613/182 880/613/182 879/614/182
f 754/543/184 753/541/184 865/541/184 866/543/184
f 683/613/183 685/612/183 881/612/183 880/613/183
f 838/554/189 825/554/189 907/554/189 912/554/189
f 737/509/167 736/507/167 848/507/167 849/509/167
f 685/612/184 687/611/184 882/611/184 881/612/184
f 746/527/176 745/525/176 857/525/176 858/527/176
f 728/493/159 729/492/159 841/492/159 840/493/159
f 687/611/185 689/610/185 883/610/185 882/611/185
f 755/545/185 754/543/185 866/543/185 867/545/185
